<svg width="20" height="20" viewBox="0 0 20 20" fill="none" xmlns="http://www.w3.org/2000/svg">
<g clip-path="url(#clip0_2_844)">
<path d="M17.4986 8.33325C17.4885 6.52073 17.4081 5.53913 16.7678 4.89881C16.0355 4.16658 14.857 4.16658 12.5 4.16658H10C7.64298 4.16658 6.46447 4.16658 5.73223 4.89881C5 5.63105 5 6.80956 5 9.16658V13.3332C5 15.6903 5 16.8688 5.73223 17.601C6.46447 18.3332 7.64298 18.3332 10 18.3332H12.5C14.857 18.3332 16.0355 18.3332 16.7678 17.601C17.5 16.8688 17.5 15.6903 17.5 13.3332V12.4999" stroke="#292D32" stroke-width="2" stroke-linecap="round"/>
<path d="M2.5 8.33325V13.3332C2.5 14.714 3.61929 15.8332 5 15.8332M15 4.16658C15 2.78587 13.8807 1.66658 12.5 1.66658H9.16667C6.02397 1.66658 4.45262 1.66658 3.47631 2.64289C2.93199 3.18721 2.69115 3.91649 2.58458 4.99991" stroke="#292D32" stroke-width="2" stroke-linecap="round"/>
<path d="M8.33337 13.3332H12.5" stroke="#292D32" stroke-width="1.5" stroke-linecap="round"/>
<path d="M15 9.99991L8.33337 9.99991" stroke="#292D32" stroke-width="1.5" stroke-linecap="round"/>
</g>
<defs>
<clipPath id="clip0_2_844">
<rect width="20" height="20" fill="white"/>
</clipPath>
</defs>
</svg>
