<svg width="20" height="20" viewBox="0 0 20 20" fill="none" xmlns="http://www.w3.org/2000/svg">
<path d="M17.5 4.9833C14.725 4.7083 11.9333 4.56664 9.15 4.56664C7.5 4.56664 5.85 4.64997 4.2 4.81664L2.5 4.9833" stroke="#FF2D55" stroke-width="2" stroke-linecap="round" stroke-linejoin="round"/>
<path d="M7.08337 4.14163L7.26671 3.04997C7.40004 2.2583 7.50004 1.66663 8.90837 1.66663H11.0917C12.5 1.66663 12.6084 2.29163 12.7334 3.0583L12.9167 4.14163" stroke="#FF2D55" stroke-width="2" stroke-linecap="round" stroke-linejoin="round"/>
<path d="M12.675 18.3333H7.32496C4.99996 18.3333 4.92496 17.3166 4.83329 16.0083L4.29163 7.61664" stroke="#FF2D55" stroke-width="2" stroke-linecap="round" stroke-linejoin="round"/>
<path d="M15.7083 7.61664L15.1666 16.0083" stroke="#FF2D55" stroke-width="2" stroke-linecap="round" stroke-linejoin="round"/>
<path d="M8.60828 13.75H11.3833" stroke="#FF2D55" stroke-width="2" stroke-linecap="round" stroke-linejoin="round"/>
<path d="M10.6833 10.4166H12.0833" stroke="#FF2D55" stroke-width="2" stroke-linecap="round" stroke-linejoin="round"/>
<path d="M7.91663 10.4166H8.60829" stroke="#FF2D55" stroke-width="2" stroke-linecap="round" stroke-linejoin="round"/>
</svg>
