<svg width="20" height="20" viewBox="0 0 20 20" fill="none" xmlns="http://www.w3.org/2000/svg">
<path d="M4.9998 8.44224C6.34425 7.48048 7.87866 7.14218 9.16638 7.14218V5.18836C9.16638 4.39003 9.16638 3.99087 9.41236 3.88041C9.65833 3.76995 9.95667 4.03514 10.5534 4.56552L13.8636 7.50796C15.1708 8.66989 15.8244 9.25088 15.8244 9.99932C15.8244 10.7478 15.1708 11.3287 13.8636 12.4907L10.5534 15.4331C9.95667 15.9635 9.65833 16.2287 9.41236 16.1182C9.16638 16.0078 9.16638 15.6086 9.16638 14.8103V12.8565C6.16638 12.8565 2.91638 14.285 1.66638 16.666C1.66638 14.6396 1.98077 13.0174 2.4998 11.7278" stroke="#292D32" stroke-width="2" stroke-linecap="round" stroke-linejoin="round"/>
<path d="M12.9487 3.74988L17.2956 7.78623C17.9573 8.40072 18.3333 9.26301 18.3333 10.1661C18.3333 11.118 17.9157 12.0221 17.1907 12.6391L12.9487 16.2499" stroke="#292D32" stroke-width="2" stroke-linecap="round"/>
</svg>
