<svg width="20" height="20" viewBox="0 0 20 20" fill="none" xmlns="http://www.w3.org/2000/svg">
<path d="M16.525 12.8749C18.075 11.3249 18.075 8.80819 16.525 7.24986L12.75 3.47486C11.9584 2.68319 10.8667 2.25819 9.75002 2.31652L5.58335 2.51652C3.91669 2.59152 2.59169 3.91652 2.50835 5.57486L2.30835 9.74152C2.25835 10.8582 2.67502 11.9499 3.46669 12.7415L7.24169 16.5165C8.79169 18.0665 11.3084 18.0665 12.8667 16.5165L14.1334 15.2499" stroke="#292D32" stroke-width="2" stroke-linecap="round" stroke-linejoin="round"/>
<path d="M5.83337 7.91652C5.83337 9.06652 6.76671 9.99986 7.91671 9.99986C9.06671 9.99986 10 9.06652 10 7.91652C10 6.76652 9.06671 5.83319 7.91671 5.83319" stroke="#292D32" stroke-width="2" stroke-linecap="round"/>
</svg>
