<svg width="52" height="53" viewBox="0 0 52 53" fill="none" xmlns="http://www.w3.org/2000/svg">
<path d="M27.9664 33.5035C27.3761 33.5035 21.8966 33.7783 21.8966 33.7783C21.1092 33.7783 20.1741 33.9411 20.9943 34.087C21.8146 34.2329 25.2596 34.087 25.2596 34.087C25.2596 34.087 28.3927 33.9242 28.5568 33.7783C28.7208 33.6325 28.8028 33.2678 28.8028 33.1948C28.8028 33.1219 28.5568 33.5035 27.9664 33.5035Z" fill="#FEFDFD"/>
<path fill-rule="evenodd" clip-rule="evenodd" d="M11.6597 18.753C12.3159 29.9126 12.562 31.4443 14.0384 33.8513C15.673 36.5161 17.6475 38.5923 22.4869 40.1969C23.7753 40.6241 29.1421 41.4184 31.6028 36.8962C34.0636 32.374 35.0367 30.8608 35.7861 27.633C36.5491 24.3464 36.2671 21.5976 35.857 20.6494C35.4468 19.7012 36.5132 6.864 31.0995 6.79107C25.6859 6.71813 17.8115 5.76993 14.0384 10.3651C11.0199 14.0412 11.1949 17.4887 11.6597 18.753ZM21.8966 33.7783C21.8966 33.7783 27.3761 33.5035 27.9664 33.5035C28.5568 33.5035 28.8028 33.1219 28.8028 33.1948C28.8028 33.2678 28.7208 33.6325 28.5568 33.7783C28.3927 33.9242 25.2596 34.087 25.2596 34.087C25.2596 34.087 21.8146 34.2329 20.9943 34.087C20.1741 33.9411 21.1092 33.7783 21.8966 33.7783Z" fill="#FEFDFD"/>
<path d="M27.9664 33.5035C27.3761 33.5035 21.8966 33.7783 21.8966 33.7783C21.1092 33.7783 20.1741 33.9411 20.9943 34.087C21.8146 34.2329 25.2596 34.087 25.2596 34.087C25.2596 34.087 28.3927 33.9242 28.5568 33.7783C28.7208 33.6325 28.8028 33.2678 28.8028 33.1948C28.8028 33.1219 28.5568 33.5035 27.9664 33.5035Z" stroke="black" stroke-width="3"/>
<path fill-rule="evenodd" clip-rule="evenodd" d="M11.6597 18.753C12.3159 29.9126 12.562 31.4443 14.0384 33.8513C15.673 36.5161 17.6475 38.5923 22.4869 40.1969C23.7753 40.6241 29.1421 41.4184 31.6028 36.8962C34.0636 32.374 35.0367 30.8608 35.7861 27.633C36.5491 24.3464 36.2671 21.5976 35.857 20.6494C35.4468 19.7012 36.5132 6.864 31.0995 6.79107C25.6859 6.71813 17.8115 5.76993 14.0384 10.3651C11.0199 14.0412 11.1949 17.4887 11.6597 18.753ZM21.8966 33.7783C21.8966 33.7783 27.3761 33.5035 27.9664 33.5035C28.5568 33.5035 28.8028 33.1219 28.8028 33.1948C28.8028 33.2678 28.7208 33.6325 28.5568 33.7783C28.3927 33.9242 25.2596 34.087 25.2596 34.087C25.2596 34.087 21.8146 34.2329 20.9943 34.087C20.1741 33.9411 21.1092 33.7783 21.8966 33.7783Z" stroke="black" stroke-width="3"/>
<path d="M20.0723 6.33372C19.5006 5.89006 18.0629 5.13582 16.8867 5.66822C15.4164 6.33372 14.6813 6.25978 13.9461 6.99922C13.211 7.73867 11.2506 8.18234 10.0254 9.88306C8.80012 11.5838 8.14666 12.8408 8.22834 14.3197C8.31003 15.7986 8.71844 16.2423 7.73825 18.3867C6.75806 20.5311 5.69618 21.4924 5.6145 22.7494" stroke="black" stroke-width="5" stroke-linecap="round"/>
<path d="M19.3608 38.7833C19.3608 38.7833 18.8149 40.7777 17.6505 42.0752C16.486 43.3727 14.8 42.7184 13.0897 43.2457C10.8381 43.9398 7.47016 45.3671 7.47016 45.3671C7.14439 45.5134 6.32997 45.8792 5.35266 46.9034C4.37535 47.9275 0.554604 50.5611 2.58682 50.5611C4.61904 50.5611 47.9412 51 49.5791 51C51.217 51 47.6548 48.0205 46.0739 46.5376C43.5945 44.2119 37.9296 42.7336 37.9296 42.7336C37.9296 42.7336 33.5317 41.7094 32.473 41.3437C31.4142 40.9779 31.2513 38.2712 31.2513 38.2712L31.0885 38.0518" stroke="black" stroke-width="3"/>
<path d="M20.5061 5.87076C20.8328 5.65761 21.21 5.53412 21.5698 5.37315C21.9939 5.18342 22.4156 4.99469 22.863 4.85139C23.7035 4.58213 24.4931 4.3023 25.2873 3.93829C26.8546 3.22005 28.6996 3.26193 30.4141 3.26193C31.4777 3.26193 32.5578 3.28567 33.562 3.65326C33.8708 3.76627 34.167 3.98288 34.4529 4.13637C34.7819 4.31296 35.169 4.57567 35.4032 4.85139C35.7672 5.27989 36.1491 5.66409 36.4561 6.12198C36.757 6.57061 36.9656 7.06357 37.2553 7.51819C37.612 8.07805 37.8913 8.62637 38.1192 9.23808C38.2139 9.49241 38.2991 9.7687 38.3621 10.0304C38.4736 10.4929 38.6426 10.8778 38.84 11.3155C39.0655 11.8156 39.1627 12.3868 39.3233 12.9049C39.5488 13.6328 39.8888 14.3089 40.1872 15.0113C40.4871 15.7175 40.63 16.4777 41.0187 17.154C41.3884 17.7972 41.9377 18.303 42.4873 18.8207C42.6196 18.9452 42.7186 19.1048 42.8707 19.2096C43.0258 19.3166 43.1999 19.4061 43.3459 19.5236C43.4523 19.6093 43.7318 19.649 43.7832 19.741" stroke="black" stroke-width="5" stroke-linecap="round"/>
<path d="M21.0842 5.30422C21.589 5.0138 22.0886 4.82974 22.6386 4.6237C23.0247 4.47907 23.4349 4.4243 23.8281 4.30234C24.7154 4.02714 25.5909 3.78712 26.5395 3.73051C28.0793 3.63863 29.7279 3.60297 31.2568 3.77541C32.5778 3.9244 34.0948 4.29057 35.1198 5.05848C35.8755 5.62469 36.4727 6.4062 37.0608 7.10477C37.5668 7.70585 38.1003 8.35809 38.726 8.86751C39.4108 9.42505 39.9626 10.1527 40.3994 10.8713C40.6402 11.2676 40.9529 11.6263 41.1806 12.0244" stroke="black" stroke-width="5" stroke-linecap="round"/>
<path d="M19.9277 6.21902C20.4786 5.63363 20.9047 4.98655 21.6899 4.61721C22.845 4.07384 24.1441 3.80547 25.4298 3.63498C26.2531 3.52579 27.0841 3.53892 27.914 3.53892C28.8551 3.53892 29.884 3.44908 30.7944 3.70223C31.9485 4.02317 32.9107 4.92743 33.6208 5.76753C34.2664 6.53124 34.5779 7.46767 34.9141 8.36118C35.3342 9.47728 36.0093 10.4536 36.908 11.3174C38.0434 12.4088 39.4058 13.3141 40.7611 14.1729C41.1666 14.4298 41.569 14.6944 41.952 14.9774C42.2099 15.1679 42.472 15.4229 42.7711 15.5561" stroke="black" stroke-width="5" stroke-linecap="round"/>
<path d="M20.0723 6.40086C21.0639 5.65017 22.2051 5.1326 23.4171 4.71823C24.895 4.21298 26.4317 4.31089 27.9922 4.32402C29.1834 4.33404 30.3078 4.52593 31.4487 4.8216C32.507 5.09585 33.6217 5.40188 34.6167 5.82636C35.3546 6.14121 36.1198 6.54373 36.7504 7.00901C37.3954 7.48495 38.0881 7.94348 38.6501 8.49694C39.7207 9.55114 40.1787 10.8261 40.6478 12.1458C40.9718 13.0573 41.3168 13.957 41.6766 14.8573C41.8245 15.2274 42.0381 15.5584 42.2536 15.9005C42.4626 16.2323 42.6136 16.5987 42.8523 16.9149C43.1217 17.2717 43.5195 17.5608 43.7831 17.91" stroke="black" stroke-width="3" stroke-linecap="round"/>
<path d="M20.9398 6.2666C23.007 4.57907 26.1431 4.58108 28.6712 5.24565C29.6198 5.49501 30.4471 5.91246 31.3057 6.33883C32.1007 6.73366 32.9453 7.05243 33.7197 7.48017C34.8853 8.12401 35.7309 9.11255 36.5262 10.0879C37.0923 10.7822 37.2394 11.6355 37.5128 12.4428C37.822 13.3556 38.0263 14.245 38.5881 15.0723C40.0966 17.2934 42.2271 19.2875 44.7952 20.5261" stroke="black" stroke-width="5" stroke-linecap="round"/>
<path d="M19.2048 6.34209C19.526 5.97848 19.9509 5.73886 20.3566 5.45576C21.0988 4.93791 21.7609 4.4255 22.6872 4.18647C23.6083 3.94883 24.5796 3.92476 25.5316 3.91672C27.0936 3.90353 28.605 4.02565 30.1117 4.41047C30.9559 4.62608 31.8531 4.87577 32.6045 5.29198C33.1783 5.60981 33.5382 6.06948 33.8374 6.5974C34.1999 7.23689 34.6237 7.83068 35.0352 8.44472C35.4635 9.08399 35.8043 9.77956 36.2005 10.4366C36.7885 11.4117 37.2667 12.4379 37.866 13.4063C38.0976 13.7805 38.2964 14.1565 38.6014 14.4901C38.9567 14.8788 39.3528 15.2394 39.7369 15.6052C40.6391 16.4646 41.5801 17.3886 42.7381 17.98C42.9203 18.0731 43.7239 18.5758 43.9277 18.3943" stroke="black" stroke-width="5" stroke-linecap="round"/>
<path d="M20.6506 6.17139C20.957 5.3254 22.1165 5.32495 22.9585 5.2624C23.9074 5.19192 24.865 5.20622 25.7966 5.40057C27.2588 5.70562 28.804 6.21983 30.0911 6.91798C30.7941 7.29932 31.2669 7.82282 31.7725 8.38933C32.381 9.07123 32.9364 9.78191 33.5047 10.4909C34.3586 11.5563 35.0473 12.6975 35.6975 13.8748C36.317 14.9965 36.8865 16.199 37.7216 17.2102C38.1773 17.762 38.7046 18.1921 39.3066 18.6088C40.3829 19.354 41.5218 19.9429 42.7711 20.3953" stroke="black" stroke-width="5" stroke-linecap="round"/>
<path d="M20.3613 6.53807C20.8799 5.92611 21.6598 5.43677 22.4868 5.21616C23.0595 5.06338 23.7346 5.09242 24.3249 5.09995C25.502 5.11497 26.6155 5.50101 27.7164 5.83838C28.8181 6.17596 29.8779 6.55744 30.9127 7.03681C31.842 7.46728 32.8236 7.91461 33.6184 8.53303C34.2546 9.02804 34.72 9.69184 35.1799 10.3149C35.7576 11.0975 36.256 11.9073 36.7768 12.7191C37.4859 13.8245 37.8437 15.1394 38.3139 16.3361C38.8429 17.6824 39.1466 19.103 40.0165 20.3236C40.7066 21.2921 41.6504 22.2467 42.8224 22.7617C43.0759 22.8731 43.3512 23.011 43.6384 23.011" stroke="black" stroke-width="5" stroke-linecap="round"/>
<path d="M20.6506 5.98036C20.9075 5.0539 22.4917 4.83483 23.3393 4.76579C24.6446 4.65948 26.0188 4.64783 27.2812 4.99806C28.8385 5.43011 30.2461 6.27016 31.5155 7.17558C32.3502 7.77098 32.9847 8.63495 33.4716 9.48376C34.0524 10.4961 34.6204 11.493 35.3097 12.45C36.609 14.2538 37.9377 16.0171 39.0905 17.9035C39.2658 18.1902 39.3781 18.4927 39.5735 18.7794C39.9101 19.2731 40.2633 19.7903 40.6979 20.2214C41.1375 20.6574 41.6838 20.9182 42.3374 20.9182" stroke="black" stroke-width="5" stroke-linecap="round"/>
<path d="M19.9277 6.10448C20.6173 6.09319 21.276 5.97983 21.9572 5.89658C22.7836 5.79559 23.6153 5.75637 24.449 5.75637C24.7887 5.75637 25.1636 5.71903 25.4965 5.79021C25.9828 5.89419 26.3749 6.2211 26.7055 6.53478C27.2709 7.07123 27.7612 7.66719 28.3028 8.22213C28.7982 8.72969 29.3354 9.20638 29.7524 9.76927C30.2231 10.4046 30.6048 11.0895 31.0872 11.7177C31.5848 12.3656 32.1897 12.9395 32.6791 13.5936C33.3755 14.5244 34.0345 15.5225 34.8562 16.3736C35.4768 17.0164 36.1477 17.7183 36.9213 18.223C37.2472 18.4356 37.6343 18.5955 38.0017 18.7427C38.4285 18.9138 38.8793 18.9659 39.3146 19.1053C39.6187 19.2027 40.1846 19.2961 40.4579 19.115" stroke="black" stroke-width="5" stroke-linecap="round"/>
<path d="M19.4939 6.40063C20.0088 6.41208 20.4742 6.52122 20.962 6.65613C21.9264 6.92284 22.9261 7.02907 23.9065 7.23337C24.596 7.37705 25.3108 7.45382 25.9531 7.72307C26.3303 7.88118 26.8364 8.00964 27.1565 8.2317" stroke="black" stroke-width="3" stroke-linecap="round"/>
<path d="M20.0723 6.34551C21.3788 6.05751 22.9752 6.02685 24.2092 6.53476C25.0798 6.89308 25.8642 7.38351 26.6547 7.85469C27.4491 8.32826 28.2446 8.80054 29.0361 9.27764" stroke="black" stroke-width="5" stroke-linecap="round"/>
<path d="M21.5181 5.22494C23.8244 5.22494 26.3352 5.14585 28.4041 6.2172C29.1019 6.57858 29.6876 7.09293 30.2173 7.62983C30.9423 8.36459 31.603 9.12146 32.2169 9.93208" stroke="black" stroke-width="3" stroke-linecap="round"/>
<path d="M21.3735 6.06635C22.0468 5.81314 22.8031 5.88626 23.5184 5.89123C24.3726 5.89716 25.2211 5.93964 26.0342 6.19769C26.6069 6.37947 27.113 6.72561 27.62 7.01978C28.2353 7.37679 28.7325 7.8137 29.2165 8.30642C30.3104 9.42003 31.5409 10.419 32.6596 11.5145C33.15 11.9947 33.4897 12.4964 33.8073 13.0711" stroke="black" stroke-width="3" stroke-linecap="round"/>
<path d="M22.5303 5.7525C24.3027 5.67548 26.0569 6.36368 27.6249 7.01729C29.28 7.70721 30.9065 8.5862 32.0453 9.8714C33.0953 11.0564 33.7895 12.3766 34.5626 13.7039C34.7858 14.087 35.0989 14.4957 35.2532 14.9019" stroke="black" stroke-width="5" stroke-linecap="round"/>
<path d="M29.1807 8.23145C30.0171 8.92013 30.8383 9.62792 31.5789 10.4016C32.85 11.7295 33.9599 13.2084 35.0203 14.6765C35.9946 16.0256 36.9894 17.4007 38.225 18.5711C38.6351 18.9595 39.0548 19.3686 39.529 19.695C39.9187 19.9632 40.2833 20.0438 40.7469 20.1334" stroke="black" stroke-width="5" stroke-linecap="round"/>
<path d="M20.3613 6.23476C21.0887 6.1661 21.8141 6.15909 22.5456 6.15572C23.1798 6.15279 23.9419 6.09484 24.5784 6.21081C24.931 6.27504 25.2741 6.62783 25.5339 6.82158C25.8666 7.06975 26.2506 7.28808 26.5191 7.59523C26.7912 7.90645 27.0168 8.27615 27.2201 8.62516C27.424 8.97508 27.6556 9.31222 27.8535 9.66467C28.094 10.0929 28.2265 10.5566 28.4057 11.006C28.7751 11.9322 29.1954 12.8907 29.6697 13.7796C30.4362 15.2159 31.2854 16.6913 32.9828 17.3963C34.6403 18.0848 36.2924 18.6945 38.1445 18.6945" stroke="black" stroke-width="5" stroke-linecap="round"/>
<path d="M21.518 5.48511C21.1681 5.96161 20.5377 6.23243 19.988 6.48783C19.1562 6.87436 18.5558 7.41117 17.9724 8.06216C17.4103 8.68931 17.0395 9.35683 16.7366 10.116C16.3311 11.1325 15.9781 12.1462 15.5278 13.1484C15.1213 14.0531 14.7352 14.917 14.2056 15.7739C13.6617 16.6541 13.0468 17.4812 12.3923 18.2977C11.7533 19.0949 11.0299 19.8304 10.1339 20.4049C9.79476 20.6223 9.38109 20.7827 9.08423 21.0491" stroke="black" stroke-width="5" stroke-linecap="round"/>
<path d="M17.1808 7.83936C16.8147 9.27852 16.2442 10.7157 15.6598 12.0914C14.7905 14.1377 13.5974 16.0759 12.205 17.8659C11.9849 18.1488 9.80784 21.0683 9.229 20.4368" stroke="black" stroke-width="3" stroke-linecap="round"/>
<path d="M19.2049 6.41216C18.8499 6.37778 18.7256 6.41123 18.4736 6.63784C17.93 7.12669 17.4259 7.64838 16.9462 8.18847C15.4127 9.91533 15.1789 12.2066 14.3044 14.2163C13.1861 16.7862 11.8129 19.2354 9.86528 21.3822C9.11516 22.2091 8.22569 23.2726 6.91577 23.2726" stroke="black" stroke-width="5" stroke-linecap="round"/>
<path d="M19.3494 6.40063C18.6568 6.40631 18.0117 6.43991 17.3666 6.68405C16.5005 7.01186 15.6931 7.44002 14.9103 7.9042C13.8641 8.52463 12.8489 9.31844 11.9993 10.1451C11.1393 10.982 10.6218 12.0227 10.256 13.0994C9.98113 13.9082 9.82322 14.7392 9.70176 15.5757C9.58423 16.3851 9.60235 17.1849 9.54572 17.9968C9.45345 19.3196 9.37354 20.6371 9.37354 21.9647" stroke="black" stroke-width="5" stroke-linecap="round"/>
<path d="M19.7832 6.71959C18.8891 6.5316 18.3145 6.83969 17.498 7.13953C16.1842 7.62198 14.8242 7.87349 13.7001 8.70479C13.1371 9.1211 12.6854 9.6332 12.2672 10.1651C11.9637 10.5509 11.6196 10.9571 11.4149 11.3963C11.2447 11.7615 11.1563 12.1642 11.026 12.5416C10.8041 13.1846 10.5758 13.8246 10.3975 14.4791C9.7185 16.9715 9.81156 19.5493 9.81156 22.0953" stroke="black" stroke-width="5" stroke-linecap="round"/>
<path d="M19.3495 6.66211C19.1414 8.15572 18.6041 9.64953 18.0605 11.0693C17.3542 12.9136 16.2219 14.5881 15.2442 16.3214C14.574 17.5094 13.8808 18.5766 12.8232 19.5331C12.1815 20.1135 11.5046 20.6398 10.8193 21.1798" stroke="black" stroke-width="5" stroke-linecap="round"/>
<path d="M18.9156 7.31592C18.6138 7.90806 18.0381 8.38354 17.6332 8.91945C16.7984 10.0242 16.0249 11.194 15.3815 12.3986C14.5693 13.9192 14.2678 15.5656 13.5823 17.1249C13.1995 17.9957 12.8808 18.9056 12.4551 19.759C12.1941 20.2823 11.778 20.6764 11.3172 21.0615C10.8774 21.4292 10.5203 21.7785 9.95178 21.9644" stroke="black" stroke-width="3" stroke-linecap="round"/>
<path d="M19.2049 6.66211C18.8541 6.68731 18.5262 6.80883 18.2092 6.9409C17.5083 7.23293 16.7917 7.58046 16.1642 7.98398C14.9054 8.79354 13.9518 10.0274 12.9951 11.1036C12.295 11.8912 11.6724 12.7406 11.1723 13.644C10.2417 15.3251 9.81004 17.2703 9.46194 19.1118C9.18667 20.5679 9.23175 22.0618 9.23175 23.534" stroke="black" stroke-width="5" stroke-linecap="round"/>
<path d="M19.9277 6.79675C19.2668 6.76019 18.7049 6.99468 18.1171 7.252C16.3241 8.03692 14.6164 9.10264 13.3528 10.4993C12.4986 11.4434 11.7534 12.5105 11.3395 13.674C11.0148 14.5866 10.7139 15.4982 10.4882 16.4346C10.2434 17.4509 10.0061 18.4465 9.91262 19.4858C9.78521 20.9025 9.71984 22.3272 9.67481 23.7478C9.65103 24.4978 9.64151 25.251 9.58833 25.9999C9.57247 26.2233 9.51807 26.4493 9.51807 26.6731" stroke="black" stroke-width="5" stroke-linecap="round"/>
<path d="M18.1927 7.7085C17.4998 8.84491 16.1971 9.58377 15.1514 10.4489C13.8451 11.5296 12.7708 12.864 11.8898 14.2323C10.4958 16.3975 10.1654 19.1285 10.5136 21.5723" stroke="black" stroke-width="3" stroke-linecap="round"/>
<path d="M18.6265 6.9441C18.1195 6.9441 17.4802 6.86383 16.9931 7.02083C16.1117 7.30493 15.3933 7.79272 14.6859 8.32524C13.3586 9.32438 12.0936 10.2797 11.1443 11.5934C10.4576 12.5437 9.75064 13.4759 9.21982 14.5068C8.85192 15.2212 8.62385 15.9643 8.46783 16.7367C8.29535 17.5906 8.16286 18.502 8.10935 19.3695C8.06162 20.1432 8.09857 20.9254 8.09857 21.7002C8.09857 21.828 7.99612 22.2673 8.1956 22.2229" stroke="black" stroke-width="5" stroke-linecap="round"/>
<path d="M17.7589 6.70767C17.2472 6.66697 16.739 6.66342 16.2256 6.66342C15.6959 6.66342 15.1721 6.63902 14.6649 6.80111C13.1432 7.28739 11.9028 8.29993 10.8674 9.37787C10.5061 9.75397 10.2181 10.1739 9.88363 10.5679C9.5441 10.9678 9.17951 11.351 8.85044 11.7579C8.6814 11.967 8.49051 12.1857 8.36133 12.4169" stroke="black" stroke-width="3" stroke-linecap="round"/>
<path d="M16.1687 7.05444C15.605 7.06464 15.1112 7.40755 14.6158 7.6212C13.7179 8.00853 12.9199 8.47682 12.2062 9.11318C11.4787 9.76181 10.898 10.4878 10.3267 11.2494C10.0112 11.67 9.70739 12.1019 9.53953 12.5912C9.47056 12.7923 9.45829 13.0099 9.37354 13.2016" stroke="black" stroke-width="3" stroke-linecap="round"/>
<path d="M16.4579 7.31592C15.2591 7.31592 14.1317 7.40057 13.1594 8.06737C12.381 8.60121 11.6499 9.16432 11.0978 9.89367C10.4253 10.7821 9.99648 11.8416 9.6199 12.8543C9.43783 13.3439 9.229 13.8566 9.229 14.3786" stroke="black" stroke-width="3" stroke-linecap="round"/>
<path d="M11.8314 8.75488C10.9333 9.46975 10.6284 10.4463 10.1592 11.3782C9.71371 12.2633 9.51746 13.1864 9.18056 14.1029C8.80651 15.1204 8.51659 16.0508 8.50946 17.1217C8.50622 17.6075 8.45397 18.0947 8.91212 18.4334" stroke="black" stroke-width="4" stroke-linecap="round"/>
<path d="M16.3132 9.14722C15.8436 9.95829 15.3102 10.7475 14.7818 11.5288C14.3186 12.2137 13.81 12.8728 13.352 13.5606C12.7538 14.4592 12.2392 15.3991 11.759 16.352C10.9781 17.9016 10.325 19.5101 9.95178 21.1799" stroke="black" stroke-width="3" stroke-linecap="round"/>
<path d="M15.4457 7.7085C14.7692 8.86398 14.3108 10.1251 13.8369 11.3507C13.2202 12.946 12.6903 14.5505 12.217 16.1819C11.7769 17.6985 11.3638 19.2208 10.9255 20.7378C10.7481 21.3518 10.5052 21.9899 10.3855 22.6186" stroke="black" stroke-width="3" stroke-linecap="round"/>
<path d="M16.024 9.80078C15.1436 10.8884 14.1717 11.9893 13.5483 13.2136C12.9137 14.4599 12.4818 15.8427 12.0946 17.1624C11.7169 18.4496 11.5476 19.7527 11.2529 21.0487" stroke="black" stroke-width="3" stroke-linecap="round"/>
<path d="M10.2409 12.417C8.68815 15.2179 8.07227 18.3544 8.07227 21.4415" stroke="black" stroke-width="3" stroke-linecap="round"/>
<path d="M12.1206 12.1555C10.8068 14.8698 9.93128 17.6497 9.41107 20.5666C9.33571 20.9891 9.229 21.4051 9.229 21.834" stroke="black" stroke-width="3" stroke-linecap="round"/>
<path d="M19.0601 9.93164C18.5066 11.2574 17.8754 12.5587 17.2323 13.8529C16.7396 14.8444 16.2252 15.8234 15.8794 16.8635" stroke="black" stroke-width="3" stroke-linecap="round"/>
<path d="M18.1928 7.7085C17.1753 10.4389 16.4531 13.2605 15.1163 15.8968C14.8116 16.4978 14.4784 17.0875 14.1553 17.6813C14.0944 17.7932 13.9235 18.1427 13.8555 18.1717" stroke="black" stroke-width="3" stroke-linecap="round"/>
<path d="M19.9277 4.56934C19.0237 8.11431 17.6667 11.5873 16.3584 15.0214C16.0941 15.7151 15.8347 16.4394 15.4654 17.0943C15.3177 17.3562 15.3011 17.2694 15.3011 17.0505" stroke="black" stroke-width="3" stroke-linecap="round"/>
<path d="M20.3614 6.26953C19.5907 9.18237 18.0899 11.8757 16.4062 14.4633C15.8238 15.3585 15.2556 16.2651 14.5233 17.0773C14.3283 17.2936 14.1834 17.5777 14.1445 17.2075" stroke="black" stroke-width="3" stroke-linecap="round"/>
<path d="M19.6386 7.31592C19.1717 8.49839 18.4715 9.50484 17.5883 10.4784C17.1025 11.0141 16.63 11.5921 16.0242 12.0244" stroke="black" stroke-width="3" stroke-linecap="round"/>
<path d="M20.7952 7.05444C21.4354 7.3059 21.9427 7.78879 22.5578 8.09174C24.0232 8.8136 25.6563 9.11492 27.2887 9.29942C30.1276 9.62031 32.9753 9.67025 35.8313 9.67025" stroke="black" stroke-width="3" stroke-linecap="round"/>
<path d="M23.8313 6.92358C26.4365 7.87197 29.215 8.36497 32.0134 8.63934C32.8873 8.72503 33.8961 8.84324 34.7657 8.65108C35.0903 8.57935 35.3597 8.44783 35.3976 8.14879" stroke="black" stroke-width="3" stroke-linecap="round"/>
<path d="M25.4216 6.25516C26.1895 5.69056 27.1067 5.48709 28.0795 5.33315C29.0141 5.18528 29.9491 5.17457 30.8766 5.37901C32.181 5.66652 33.2263 6.30591 34.1731 7.1313C35.094 7.93413 35.9107 8.83217 36.741 9.70663C37.7795 10.8004 38.8408 11.8877 39.7864 13.0471C40.1327 13.4717 40.601 13.9936 40.7469 14.5097" stroke="black" stroke-width="3" stroke-linecap="round"/>
<path d="M29.4697 4.5436C31.1464 4.2626 33.1851 4.52727 34.5032 5.55173C35.614 6.41517 36.5458 7.55544 37.1024 8.77436C37.7232 10.1339 38.0478 11.5949 38.5602 12.9882C38.6957 13.3565 39.0119 13.8528 39.0119 14.2477" stroke="black" stroke-width="3" stroke-linecap="round"/>
<path d="M27.735 4.70119C28.2219 4.70119 28.7114 4.69356 29.1976 4.7205C30.2119 4.77668 31.0884 5.02756 31.9536 5.5071C33.7216 6.48709 35.1665 7.78039 36.1077 9.44978C36.6057 10.3331 37.0311 11.2571 37.4251 12.1812C37.8105 13.0848 38.0658 14.0235 38.4253 14.9343C38.5889 15.3486 38.7787 15.7585 38.9953 16.1528C39.0545 16.2605 39.1246 16.3561 39.1567 16.4713" stroke="black" stroke-width="3" stroke-linecap="round"/>
<path d="M32.6506 5.87769C33.8448 6.54034 35.001 7.23115 36.0241 8.10165C36.993 8.92591 37.6598 9.87679 38.2597 10.9356C39.0978 12.4148 39.7627 13.8757 39.8206 15.5517C39.8857 17.4329 39.6165 19.6769 40.8916 21.3109" stroke="black" stroke-width="3" stroke-linecap="round"/>
<path d="M37.4216 11.5015C38.1399 14.2104 39.4342 16.6593 41.0457 19.0209C41.2923 19.3823 41.5162 19.8419 41.8784 20.1275C41.928 20.1666 41.889 20.0089 41.889 19.9495C41.889 19.6736 41.889 19.3978 41.889 19.122" stroke="black" stroke-width="3" stroke-linecap="round"/>
<path d="M37.1326 7.7085C37.3496 8.44004 37.7396 9.03716 38.1085 9.71183C39.0044 11.3505 39.6512 13.0437 40.1795 14.8022C40.5709 16.1051 40.9309 17.3896 41.009 18.7413C41.0383 19.2484 41.0361 20.2644 41.0361 20.2644" stroke="black" stroke-width="3" stroke-linecap="round"/>
<path d="M19.4939 7.18555C18.9575 8.61092 18.4927 10.0525 17.9938 11.4895C17.2864 13.5273 16.9168 15.6833 15.6346 17.5154C15.1481 18.2106 14.7365 18.9465 14.2423 19.636C13.8486 20.1852 13.3566 20.6699 12.885 21.1648C12.4061 21.6673 11.8944 22.2736 11.2529 22.6188" stroke="black" stroke-width="3" stroke-linecap="round"/>
<path d="M17.7591 8.49341C16.9437 9.73716 16.2916 11.079 15.6172 12.388C14.56 14.4402 13.351 16.4211 12.1955 18.4286C11.3937 19.8217 10.5991 21.2137 9.91437 22.6575C9.75044 23.0031 9.58275 23.3406 9.37354 23.6651" stroke="black" stroke-width="3" stroke-linecap="round"/>
<path d="M15.5904 9.14722C15.221 10.512 14.7467 11.8528 14.3504 13.2118C13.8952 14.7721 13.6051 16.3652 13.2118 17.9373C13.0134 18.7304 12.8016 19.517 12.7383 20.3277C12.7263 20.481 12.6989 20.7875 12.6989 20.7875" stroke="black" stroke-width="3" stroke-linecap="round"/>
<path d="M19.0601 5.22363C17.4816 8.91384 15.617 12.5226 14.3319 16.3073C14.0855 17.0328 13.981 17.8974 13.5662 18.5642" stroke="black" stroke-width="4" stroke-linecap="round"/>
<path d="M16.1686 9.27808C14.2818 11.8675 12.7661 14.6489 11.9758 17.6486" stroke="black" stroke-width="3" stroke-linecap="round"/>
<path d="M37.8796 19.218C37.8067 19.7779 37.9102 20.2957 38.0395 20.8451C38.2948 21.9294 38.6151 23.0001 38.9834 24.0566C39.4981 25.5333 40.2858 26.8664 41.0362 28.2425" stroke="black" stroke-width="3" stroke-linecap="round"/>
<path d="M37.7109 15.8174C37.7109 17.0122 38.0812 18.0863 38.5463 19.2085C39.0386 20.3966 39.6721 21.5149 40.2919 22.6522C40.5752 23.1719 40.8406 23.6956 41.1808 24.188" stroke="black" stroke-width="3" stroke-linecap="round"/>
<path d="M38.4885 14.7712C38.4407 15.3472 38.4412 15.9221 38.4412 16.4995C38.4412 17.6852 38.4103 18.8754 38.4754 20.0599C38.6132 22.5682 38.8139 25.0772 38.8676 27.5887" stroke="black" stroke-width="3" stroke-linecap="round"/>
<path d="M38.4336 16.8638C38.2125 18.9294 38.3109 21.0924 38.3109 23.1866C38.3109 24.6975 38.3109 26.2084 38.3109 27.7194" stroke="black" stroke-width="3" stroke-linecap="round"/>
<path d="M36.7697 16.21C36.7194 17.3314 36.7154 18.4515 36.7154 19.5735C36.7154 20.8874 36.6502 22.2144 36.7788 23.5256C36.8121 23.8659 37.2025 26.9348 37.4217 26.9348" stroke="black" stroke-width="3" stroke-linecap="round"/>
<path d="M38.1446 14.2478C37.7324 19.7298 37.8819 25.2371 37.8819 30.7274" stroke="black" stroke-width="3" stroke-linecap="round"/>
<path d="M39.5639 15.2944C39.4866 17.3215 39.4206 19.3523 39.4553 21.3818C39.4693 22.2004 39.5281 23.028 39.696 23.826C39.7327 24.0003 39.7817 24.6794 40.0241 24.5683" stroke="black" stroke-width="3" stroke-linecap="round"/>
<path d="M39.9132 15.5559C39.7961 18.047 39.9288 20.7635 41.1958 23.0458C41.3894 23.3945 41.6181 23.7276 41.8095 24.0772C41.8466 24.1449 41.8411 24.1609 41.9035 24.1881" stroke="black" stroke-width="3" stroke-linecap="round"/>
<path d="M37.5662 14.3787C37.6317 16.9044 37.8145 19.535 38.9229 21.8744C39.1435 22.3401 39.4618 22.7166 39.7348 23.1416" stroke="black" stroke-width="3" stroke-linecap="round"/>
<path d="M35.1084 10.8477C35.1745 12.4733 35.6228 13.8962 36.4029 15.3718C37.1024 16.6949 38.0292 17.9021 39.1538 18.9627C39.9171 19.6825 40.7533 20.4688 41.759 20.9185" stroke="black" stroke-width="3" stroke-linecap="round"/>
<path d="M33.8157 10.1934C33.7652 11.8989 33.9332 13.6901 34.5169 15.3203C34.9616 16.5623 35.6593 17.7443 36.34 18.8928C36.9335 19.8941 37.5791 20.8474 38.2818 21.7894C38.6005 22.2166 38.8943 22.6466 39.3012 23.0108" stroke="black" stroke-width="3" stroke-linecap="round"/>
<path d="M20.5061 7.18555C22.2563 7.97904 24.2446 8.26422 26.2138 8.43774C27.3396 8.53694 28.481 8.62424 29.6145 8.62424" stroke="black" stroke-width="3" stroke-linecap="round"/>
<path d="M21.0842 7.18555C22.1712 7.48245 23.2598 7.78433 24.3979 7.94001C25.3114 8.06498 26.2311 8.10108 27.1565 8.10108" stroke="black" stroke-width="3" stroke-linecap="round"/>
<path d="M21.9518 6.66211C21.7205 7.52886 21.1507 8.24336 20.5073 8.87556C19.9212 9.45149 19.306 10.0824 18.4819 10.3242" stroke="black" stroke-width="3" stroke-linecap="round"/>
<path d="M20.497 6.92358C20.497 7.29121 20.5598 7.72202 20.3552 8.05952C20.1463 8.4044 19.7597 8.72734 19.4256 8.98716C19.0188 9.30362 18.5155 9.56138 18.0482 9.80097" stroke="black" stroke-width="3" stroke-linecap="round"/>
<path d="M9.80714 15.8174C9.59728 17.6498 7.80106 18.8027 6.771 20.2642" stroke="black" stroke-width="3" stroke-linecap="round"/>
<path d="M20.9399 6.21971C19.7402 6.00567 18.395 5.955 17.1755 6.06302C15.7423 6.18995 14.4166 7.02945 13.4651 7.94092C11.6724 9.65815 10.9525 11.8574 10.5303 14.117" stroke="black" stroke-width="4" stroke-linecap="round"/>
<path d="M15.7349 7.83936C14.8753 8.50834 13.9722 9.14651 13.1923 9.89339C12.7642 10.3033 12.1532 10.8086 11.9758 11.3707" stroke="black" stroke-width="3" stroke-linecap="round"/>
<path d="M12.8433 9.67065C12.5121 10.2798 12.0663 10.9356 11.9758 11.6325" stroke="black" stroke-width="3" stroke-linecap="round"/>
<path d="M13.9117 8.98947C13.4818 9.79808 13.0946 10.6262 12.6988 11.4483C12.6253 11.601 12.731 11.4772 12.7827 11.4195C13.0765 11.0919 13.3567 10.7552 13.6572 10.4322C14.6006 9.41809 15.6516 8.56382 16.7706 7.70972C16.8713 7.63287 17.0395 7.35998 17.0684 7.47486C17.1355 7.74218 16.8576 8.19492 16.7516 8.4119C16.1943 9.5527 15.5293 10.6576 14.7563 11.6951C14.5046 12.033 14.2368 12.3591 13.9658 12.6849C13.8855 12.7815 13.7456 12.9147 13.6924 13.0324C13.6229 13.1861 13.893 12.753 13.9929 12.613C14.4217 12.0122 14.8618 11.418 15.3005 10.8228C15.748 10.2157 16.2182 9.61379 16.6081 8.97509C16.7281 8.77861 17.0411 8.18946 16.8572 8.3424C16.4596 8.6732 16.0956 9.09631 15.7472 9.45919C14.9292 10.3113 14.1401 11.1829 13.3594 12.0618C12.9017 12.5771 12.4559 13.1015 11.9624 13.5908C11.8493 13.7029 11.5785 14.052 11.5942 13.9023C11.6196 13.6614 11.9928 13.1544 12.0843 13.0013C12.5986 12.1401 13.1439 11.2939 13.6572 10.4322C14.199 9.52266 15.6875 6.73288 15.1895 7.66179C14.3765 9.17836 13.3711 10.6085 12.4308 12.0642C11.9454 12.8157 10.6113 15.1279 11.1069 14.3817C11.9266 13.1474 12.8676 11.9743 13.8305 10.8252C14.2182 10.3625 14.6167 9.90675 15.0162 9.452C15.05 9.41356 15.153 9.30008 15.1245 9.34176C15.0039 9.51834 14.8753 9.69057 14.7536 9.8666C14.1048 10.8055 13.5088 11.7786 13.067 12.8095C13.0308 12.894 12.9505 13.141 13.0237 13.0779C13.3004 12.8394 13.5363 12.5272 13.7601 12.2535C14.2929 11.6018 14.968 10.8479 15.2599 10.0727C15.3427 9.85275 14.9829 10.4663 14.843 10.6622C14.3328 11.3767 13.8051 12.0824 13.2673 12.7808C13.1039 12.9931 12.9402 13.2289 12.753 13.4278C12.6355 13.5526 12.9018 13.131 12.9749 12.9821C13.0488 12.8319 13.8919 10.8203 13.8359 10.8156C13.7901 10.8118 13.7702 10.8733 13.7438 10.9067C13.6156 11.0691 13.339 11.5002 13.2592 11.6209C12.8447 12.2478 12.4243 12.8703 11.9787 13.4806C11.6808 13.8884 11.3616 14.2849 11.0771 14.7004C10.9881 14.8305 10.9697 14.8613 10.9093 14.9736C10.8949 15.0004 10.9402 14.921 10.9553 14.8945C11.5244 13.9013 12.0037 12.8879 12.3035 11.803C12.4162 11.3954 12.501 10.9849 12.5364 10.5664C12.5415 10.5053 12.5305 10.3351 12.4931 10.3866C12.2495 10.7221 12.0761 11.131 11.8974 11.4914C11.5544 12.1837 11.2234 12.8812 10.9012 13.5812C10.7388 13.934 10.5924 14.2909 10.4355 14.6453C10.4234 14.6726 10.3773 14.7501 10.3868 14.722C10.4186 14.6281 10.5161 14.4472 10.5492 14.3817C11.0775 13.3355 11.5198 12.2632 11.9245 11.1751C11.9882 11.004 12.0383 10.7954 12.1276 10.6287C12.2099 10.4747 12.0485 10.9622 12.0003 11.1272C11.7936 11.8351 11.6124 12.5685 11.5617 13.3008C11.5522 13.4386 11.7222 13.0636 11.7892 12.9389C12.1575 12.2536 12.5426 11.5748 12.8829 10.8779C13.0199 10.5973 13.1136 10.289 13.2592 10.0128C13.3567 9.82795 13.2478 10.421 13.224 10.6239C13.081 11.8432 12.8848 13.0583 12.8504 14.2858C12.8496 14.3144 12.7753 14.7679 12.9885 14.6573C13.3761 14.4561 13.708 13.9759 13.9496 13.6675C14.8788 12.481 15.6823 11.1723 16.4592 9.90254C16.8877 9.20235 15.8228 11.3926 15.4738 12.1265C14.8709 13.3945 14.2595 14.6695 13.5706 15.9034C13.5412 15.956 13.5135 16.0095 13.4785 16.0592C13.406 16.1624 13.5902 15.8371 13.6518 15.7285C14.0852 14.9633 14.5152 14.2008 14.9025 13.4159C15.3283 12.5531 15.7122 11.6751 16.1208 10.806C16.2012 10.6352 16.3627 10.2882 16.4782 10.0919C16.517 10.0258 16.4181 10.2313 16.3807 10.298C15.6087 11.6748 14.8411 13.0557 14.0308 14.4152C13.8969 14.6399 13.5061 15.3988 13.7655 14.6597C14.1677 13.5135 14.5861 12.3622 14.7834 11.1703C14.7869 11.1495 14.916 10.6005 14.6697 10.8444C14.0878 11.4206 13.6635 12.196 13.2024 12.8455C12.6658 13.6011 12.1244 14.3547 11.6051 15.1198C11.4574 15.3373 11.1954 15.6607 11.1069 15.925C11.0807 16.0035 11.2635 15.8339 11.3235 15.7716C11.9366 15.135 12.4326 14.4143 12.9208 13.701C13.348 13.0769 13.7604 12.4448 14.1905 11.8222C14.2906 11.6773 14.4774 11.2219 14.4964 11.3908C14.5061 11.4763 14.2411 11.8976 14.2393 11.9012C13.8202 12.7398 13.467 13.6014 13.1374 14.4703C13.0652 14.6607 12.9934 14.8513 12.9262 15.0431C12.8851 15.1605 12.845 15.2783 12.8125 15.3978C12.7997 15.4448 12.7432 15.5179 12.7909 15.5416C12.8354 15.5637 12.8551 15.4707 12.8802 15.4313C13.0146 15.2207 13.1909 14.8655 13.289 14.6644C13.5513 14.127 13.7916 13.5815 13.9821 13.0204C14.0272 12.8874 14.0656 12.7525 14.1039 12.6178C14.1353 12.5075 14.2974 12.2496 14.1743 12.2823C14.0789 12.3076 13.7386 13.0871 13.7384 13.0875C13.4623 13.625 13.1989 14.1668 12.9506 14.7148C12.8844 14.8608 12.8095 15.1123 12.7042 15.2588C12.5056 15.5351 13.0114 14.6628 13.159 14.3625C13.6197 13.4256 14.7413 10.5234 14.3719 11.4914C13.961 12.568 13.7131 13.7097 13.4081 14.813C13.3496 15.0249 13.0905 15.6061 13.3756 15.0814C14.3451 13.2974 15.3833 11.5426 16.3699 9.76594C16.5312 9.47546 16.9397 8.5834 16.868 8.9008C16.737 9.48071 16.4557 10.0295 16.3157 10.6095C16.2882 10.7236 16.1468 11.0262 16.2508 10.9546C16.3318 10.8989 16.5257 10.4799 16.5404 10.4537C16.7617 10.062 16.9679 9.66641 17.1333 9.25308C17.2305 9.01044 17.3716 8.25274 17.3716 8.51016C17.3716 8.70012 17.2975 8.94767 17.2714 9.12607C17.2042 9.58599 17.1595 10.046 17.1279 10.5089C17.1112 10.7535 17.0846 11.0038 17.0846 11.2494C17.0846 11.3054 17.2293 10.7304 17.2362 10.703C17.3618 10.2062 17.5364 9.71054 17.6125 9.20515C17.6261 9.11526 17.5636 9.38286 17.5178 9.46398" stroke="black" stroke-width="4" stroke-linecap="round"/>
<path d="M17.759 8.75488C17.7173 9.55982 17.3271 10.327 17.0388 11.0777C16.6518 12.0853 16.2953 13.0957 15.8527 14.0846C15.6081 14.6311 15.3788 15.1976 15.0468 15.7062C14.8694 15.9779 14.8804 15.6864 14.8674 15.5314" stroke="black" stroke-width="3" stroke-linecap="round"/>
<path d="M15.4458 6.26953C15.1992 6.78586 14.9304 7.29627 14.6989 7.81722C14.6386 7.95285 14.5784 8.08637 14.5784 8.23138" stroke="black" stroke-width="3" stroke-linecap="round"/>
<path d="M17.1807 6.40063C16.5282 7.3188 15.569 8.01949 14.8692 8.90979C14.3109 9.62007 13.8362 10.3759 13.5204 11.2026C13.4175 11.4721 13.3745 11.7592 13.2771 12.0246" stroke="black" stroke-width="4" stroke-linecap="round"/>
<path d="M16.3132 10.3242C15.6427 11.2996 15.0551 12.324 14.3618 13.286C13.8398 14.0103 13.2621 14.6844 12.9066 15.4893C12.8207 15.6838 12.7014 15.9175 12.6641 16.1277C12.6256 16.3441 13.1501 16.0005 13.1547 15.9981C13.4216 15.8568 13.6841 15.7009 13.965 15.5805C14.0095 15.5614 14.1347 15.5437 14.1138 15.5829C14.0504 15.7015 13.7826 15.9516 13.7224 16.0101C13.159 16.5582 12.5948 17.115 12.0026 17.6398C11.6063 17.991 12.1012 17.6302 12.2506 17.6302C12.3697 17.6302 12.2032 17.8347 12.1569 17.9302C11.9871 18.2809 11.8138 18.63 11.6526 18.9839C11.5454 19.2191 11.4557 19.6953 11.2529 19.8719" stroke="black" stroke-width="3" stroke-linecap="round"/>
<path d="M25.5662 5.91949C25.8248 5.63255 26.1003 5.32453 26.4451 5.11521C26.8581 4.86453 27.2167 4.9554 27.6298 5.14428C28.3411 5.46955 29.0183 5.87554 29.6934 6.2538C31.0227 6.9986 32.3394 7.76266 33.6296 8.56004C35.2244 9.5457 37.3138 10.7275 37.9752 12.4603C38.1316 12.87 38.1445 13.2979 38.1445 13.7249" stroke="black" stroke-width="3" stroke-linecap="round"/>
<path d="M28.0242 3.78491C28.7912 4.35366 29.544 4.93041 30.3308 5.47781C31.4376 6.24787 32.5932 6.9851 33.629 7.83422C34.2357 8.33152 34.8562 8.87304 35.3051 9.49785C35.4018 9.63237 35.4992 9.77625 35.5422 9.93205" stroke="black" stroke-width="3" stroke-linecap="round"/>
<path d="M27.8794 3.26147C28.8602 4.50492 30.5992 5.24891 31.979 6.0994C33.0972 6.78861 34.2902 7.51968 35.1083 8.49308" stroke="black" stroke-width="3" stroke-linecap="round"/>
<path d="M28.1687 4.0459C29.9438 5.44484 31.954 6.55875 34.0493 7.55505C34.9822 7.99866 35.9333 8.4095 36.8434 8.88514" stroke="black" stroke-width="3" stroke-linecap="round"/>
<path d="M32.3615 3C33.063 4.747 33.8054 6.45643 34.8236 8.06768C35.2696 8.77336 35.7014 9.47604 36.1205 10.1935" stroke="black" stroke-width="3" stroke-linecap="round"/>
<path d="M32.6506 4.43848C34.2662 5.76506 36.2409 7.03181 37.0365 8.91929C37.2494 9.42444 37.3778 9.93206 37.5171 10.4532C37.5271 10.4904 37.5663 10.672 37.5663 10.5355" stroke="black" stroke-width="3" stroke-linecap="round"/>
<path d="M33.9518 4.0459C34.0623 4.42205 34.2971 4.75226 34.5365 5.07898C35.0395 5.76521 35.5481 6.44595 36.0265 7.14513C36.8283 8.31708 37.5303 9.5486 38 10.847" stroke="black" stroke-width="3" stroke-linecap="round"/>
<path d="M32.9398 4.177C34.7252 7.12978 37.5255 9.76012 38.4338 13.0993C38.7149 14.1326 38.8675 15.2745 38.8675 16.3405" stroke="black" stroke-width="3" stroke-linecap="round"/>
<path d="M30.1927 5.87769C30.5777 6.44077 30.9559 7.00636 31.405 7.53207C32.0346 8.26895 32.7871 8.91125 33.4887 9.59225C34.9211 10.9826 36.0994 12.494 37.2121 14.0944C37.9734 15.1892 38.764 16.3069 39.2254 17.5352C39.2537 17.6104 39.3012 17.8426 39.3012 17.7633" stroke="black" stroke-width="3" stroke-linecap="round"/>
<path d="M31.4939 7.18555C33.388 9.71976 35.5139 12.07 37.6972 14.4051C38.3717 15.1265 39.0882 15.8556 39.6179 16.6724C39.6643 16.7438 39.8794 17.3612 39.8794 17.0271" stroke="black" stroke-width="3" stroke-linecap="round"/>
<path d="M29.3254 6.13867C29.7044 6.82834 30.2334 7.37695 30.7956 7.95441C31.9336 9.12345 33.118 10.2564 34.2529 11.4274C35.3638 12.5736 36.284 13.8316 37.1609 15.1261C37.4354 15.5313 37.8011 15.9852 37.8556 16.4711" stroke="black" stroke-width="3" stroke-linecap="round"/>
<path d="M29.4697 4.8313C30.4073 6.16569 31.2001 7.57542 32.1249 8.91654C33.032 10.2319 34.1045 11.4411 35.3021 12.5495C36.6128 13.7627 38.0328 14.8792 39.5902 15.8177" stroke="black" stroke-width="3" stroke-linecap="round"/>
<path d="M35.6868 6.92358C36.528 8.46519 37.5328 9.93177 38.5522 11.3798C39.4662 12.678 40.3255 13.9544 40.8914 15.4154C41.3535 16.6087 41.6893 17.8363 42.0769 19.05C42.1493 19.2769 42.2165 19.5106 42.3028 19.7339C42.3166 19.7695 42.3315 19.6625 42.3374 19.6251" stroke="black" stroke-width="3" stroke-linecap="round"/>
<path d="M38 6.79297C38.3188 8.22621 38.9185 9.60548 39.5193 10.9612C39.9092 11.8408 40.2908 12.7227 40.6684 13.6065C40.9787 14.333 41.3249 15.0602 41.5315 15.8173C41.8288 16.9065 41.9561 18.2842 41.1367 19.218" stroke="black" stroke-width="3" stroke-linecap="round"/>
<path d="M38.2891 9.40869C38.3979 10.9555 38.8734 12.4368 39.2191 13.9478C39.648 15.8227 39.9312 17.739 39.9988 19.6552C40.0352 20.6859 40.0243 21.7218 40.0144 22.7531C40.009 23.3129 39.9123 23.7895 39.7346 24.3188" stroke="black" stroke-width="3" stroke-linecap="round"/>
<path d="M38.5784 14.6401C39.0712 17.9617 40.1291 21.2031 40.2821 24.5662C40.3357 25.7462 40.304 26.9307 40.304 28.1115" stroke="black" stroke-width="3" stroke-linecap="round"/>
<path d="M36.41 13.5942C36.4019 15.6709 36.5509 17.8177 37.4201 19.7781C37.6526 20.3025 37.8897 20.8587 38.2892 21.3109" stroke="black" stroke-width="3" stroke-linecap="round"/>
<path d="M33.5181 14.2478C33.9 15.9301 34.3909 17.5359 35.2777 19.0774C35.4073 19.3028 35.5741 19.5138 35.6867 19.741" stroke="black" stroke-width="3" stroke-linecap="round"/>
<path d="M31.4939 11.5015C31.728 13.0354 32.3237 14.553 33.1539 15.9134C34.0615 17.4008 35.3446 18.8528 36.8828 19.8693C37.7146 20.419 38.9169 21.1799 40.024 21.1799" stroke="black" stroke-width="3" stroke-linecap="round"/>
<path d="M36.5542 18.8257C36.5542 20.4165 36.898 21.9839 36.9505 23.5748C36.9835 24.5777 37.0843 25.5751 37.0843 26.5789C37.0843 27.3712 37.0843 28.1636 37.0843 28.9559C37.0843 29.5676 37.0361 30.1734 37.0361 30.7836C37.0361 30.9397 36.9491 31.2983 37.1325 31.3815" stroke="black" stroke-width="3" stroke-linecap="round"/>
<path d="M37.4217 20.2644C37.2502 20.7295 37.1972 21.1892 37.1869 21.6632C37.1585 22.973 37.1825 24.2835 37.1825 25.5934C37.1825 26.7124 36.9967 27.9167 37.342 29.0273" stroke="black" stroke-width="3" stroke-linecap="round"/>
<path d="M36.988 28.8965C36.8393 29.5109 36.7063 30.1315 36.699 30.7545C36.6975 30.8804 36.7096 31.0013 36.7712 31.1199" stroke="black" stroke-width="3" stroke-linecap="round"/>
<path d="M20.6506 7.7085C24.744 8.92512 28.8456 9.84573 33.0844 10.5859" stroke="black" stroke-width="3" stroke-linecap="round"/>
<path d="M21.5181 6.92358C23.6973 10.2138 28.7734 11.9401 32.763 12.7281C34.0719 12.9866 35.342 12.9359 36.6988 12.9359" stroke="black" stroke-width="3" stroke-linecap="round"/>
<path d="M25.5662 7.96997C26.7918 9.43334 28.5661 10.4318 30.2069 11.4874C31.7534 12.4822 33.3084 13.4101 34.9638 14.2479" stroke="black" stroke-width="3" stroke-linecap="round"/>
<path d="M24.1206 7.31592C25.4092 8.67479 26.9619 9.62521 28.6421 10.5867C31.6215 12.2918 34.7745 14.0665 38.2003 14.9943C38.6322 15.1112 40.3409 15.6519 40.8018 15.317C41.3224 14.9387 41.3254 14.061 41.3254 13.5202" stroke="black" stroke-width="3" stroke-linecap="round"/>
<path d="M22.0963 6.00806C25.9468 8.9017 29.6864 12.0876 34.3938 13.9281C36.1259 14.6054 37.5964 15.0326 39.4457 15.0326" stroke="black" stroke-width="3" stroke-linecap="round"/>
<path d="M34.6746 10.1934C36.416 12.6309 38.2077 15.0833 40.1336 17.4074C40.8528 18.2754 41.4984 19.1214 42.3372 19.8718" stroke="black" stroke-width="3" stroke-linecap="round"/>
<path d="M24.4724 24.7114C24.367 25.2441 23.6522 26.7959 24.6252 26.7959C25.1074 26.7959 25.5494 26.9349 26.0001 26.9349" stroke="black" stroke-width="5" stroke-linecap="round"/>
<path d="M16.6025 17.781C17.9617 17.6297 19.3187 17.6511 20.6861 17.6511C21.2598 17.6511 22.1883 17.5911 22.5302 18.0408" stroke="black" stroke-width="5" stroke-linecap="round"/>
<path d="M27.1566 17.7794C28.8873 17.7525 30.6427 17.5178 32.3614 17.5178" stroke="black" stroke-width="5" stroke-linecap="round"/>
<path d="M19.2026 20.395C18.4034 20.4115 17.846 20.5596 17.7685 21.3311C17.681 22.2017 18.2059 22.3146 19.1945 22.1771C19.9326 22.0744 20.1038 21.8289 20.0678 21.2687C20.0434 20.888 19.4837 20.8816 19.3468 20.6446" stroke="black" stroke-width="5" stroke-linecap="round"/>
<path d="M31.0035 19.8721C30.1544 19.8897 29.5621 20.0484 29.4797 20.875C29.3868 21.8078 29.9445 21.9287 30.995 21.7814C31.7791 21.6714 31.961 21.4083 31.9228 20.8082C31.8968 20.4003 31.3021 20.3934 31.1567 20.1395" stroke="black" stroke-width="5" stroke-linecap="round"/>
<path d="M15.5905 8.62378C13.9228 10.756 11.9751 12.6319 10.4893 14.7923C9.83103 15.7495 9.09887 16.6852 8.53888 17.696C8.07472 18.5338 7.91454 19.2619 7.63867 20.1333" stroke="black" stroke-width="5" stroke-linecap="round"/>
<path d="M15.4458 5.74658C14.7113 8.04125 14.0732 10.3699 13.8881 12.7441C13.7972 13.9105 13.2771 15.0315 13.2771 16.2098" stroke="black" stroke-width="5" stroke-linecap="round"/>
<path d="M21.9518 5.93119C23.2003 5.51421 24.9302 4.43427 26.343 4.58335C27.4203 4.69703 28.0643 5.52486 29.0145 5.85631C29.6113 6.06449 30.1872 6.309 30.7843 6.50027C31.3976 6.69671 31.7161 7.36806 32.3288 7.60849C33.7403 8.16238 34.8596 9.12482 35.9269 10.1095C37.3123 11.3875 38.8674 12.9399 41.0361 12.9399" stroke="black" stroke-width="5" stroke-linecap="round"/>
<path d="M22.241 8.08303C23.4289 7.6255 24.5675 7.10495 25.7622 7.7468C26.5171 8.1524 27.2231 8.6221 27.94 9.07678C29.1519 9.8455 30.5072 10.403 31.7031 11.2062C32.2385 11.5658 32.868 11.7423 33.422 12.058C33.7879 12.2665 34.3594 12.7153 34.7737 12.7828C35.807 12.951 36.8215 13.1186 37.7108 12.5213" stroke="black" stroke-width="5" stroke-linecap="round"/>
<path d="M21.8073 8.53593C22.7793 8.35386 24.2508 7.83912 25.2472 8.26512C25.7791 8.49249 26.1904 8.90463 26.6681 9.20545C27.6446 9.82048 28.6925 10.4036 29.8172 10.7702C30.6161 11.0306 34.2684 12.2415 34.8193 11.2441" stroke="black" stroke-width="5" stroke-linecap="round"/>
<path d="M24.265 8.49341C23.7225 11.2694 22.2889 13.656 19.2131 14.7338C18.1121 15.1197 16.7732 15.1637 15.5903 15.1637" stroke="black" stroke-width="5" stroke-linecap="round"/>
<path d="M21.9519 8.3623C21.5369 10.1039 21.1296 11.5329 19.7695 12.8434C19.2141 13.3786 18.5543 13.8126 17.9037 14.2479" stroke="black" stroke-width="5" stroke-linecap="round"/>
<path d="M21.8072 7.83936C21.1271 9.62222 20.3715 10.9709 19.0602 12.417" stroke="black" stroke-width="5" stroke-linecap="round"/>
<path d="M22.0963 7.96997C20.975 9.5653 19.8462 11.1429 18.6265 12.6784" stroke="black" stroke-width="5" stroke-linecap="round"/>
<path d="M22.6747 8.49341C21.8086 9.32294 20.9412 10.1513 20.0723 10.9784" stroke="black" stroke-width="5" stroke-linecap="round"/>
<path d="M22.3856 8.3623C21.5195 9.19183 20.6521 10.0202 19.7832 10.8473" stroke="black" stroke-width="5" stroke-linecap="round"/>
<path d="M27.9664 33.5035C27.3761 33.5035 21.8966 33.7783 21.8966 33.7783C21.1092 33.7783 20.1741 33.9411 20.9943 34.087C21.8146 34.2329 25.2596 34.087 25.2596 34.087C25.2596 34.087 28.3927 33.9242 28.5568 33.7783C28.7208 33.6325 28.8028 33.2678 28.8028 33.1948C28.8028 33.1219 28.5568 33.5035 27.9664 33.5035Z" fill="#FEFDFD"/>
<path fill-rule="evenodd" clip-rule="evenodd" d="M11.6597 18.753C12.3159 29.9126 12.562 31.4443 14.0384 33.8513C15.673 36.5161 17.6475 38.5923 22.4869 40.1969C23.7753 40.6241 29.1421 41.4184 31.6028 36.8962C34.0636 32.374 35.0367 30.8608 35.7861 27.633C36.5491 24.3464 36.2671 21.5976 35.857 20.6494C35.4468 19.7012 36.5132 6.864 31.0995 6.79107C25.6859 6.71813 17.8115 5.76993 14.0384 10.3651C11.0199 14.0412 11.1949 17.4887 11.6597 18.753ZM21.8966 33.7783C21.8966 33.7783 27.3761 33.5035 27.9664 33.5035C28.5568 33.5035 28.8028 33.1219 28.8028 33.1948C28.8028 33.2678 28.7208 33.6325 28.5568 33.7783C28.3927 33.9242 25.2596 34.087 25.2596 34.087C25.2596 34.087 21.8146 34.2329 20.9943 34.087C20.1741 33.9411 21.1092 33.7783 21.8966 33.7783Z" fill="#FEFDFD"/>
<path d="M27.9664 33.5035C27.3761 33.5035 21.8966 33.7783 21.8966 33.7783C21.1092 33.7783 20.1741 33.9411 20.9943 34.087C21.8146 34.2329 25.2596 34.087 25.2596 34.087C25.2596 34.087 28.3927 33.9242 28.5568 33.7783C28.7208 33.6325 28.8028 33.2678 28.8028 33.1948C28.8028 33.1219 28.5568 33.5035 27.9664 33.5035Z" stroke="black" stroke-width="3"/>
<path fill-rule="evenodd" clip-rule="evenodd" d="M11.6597 18.753C12.3159 29.9126 12.562 31.4443 14.0384 33.8513C15.673 36.5161 17.6475 38.5923 22.4869 40.1969C23.7753 40.6241 29.1421 41.4184 31.6028 36.8962C34.0636 32.374 35.0367 30.8608 35.7861 27.633C36.5491 24.3464 36.2671 21.5976 35.857 20.6494C35.4468 19.7012 36.5132 6.864 31.0995 6.79107C25.6859 6.71813 17.8115 5.76993 14.0384 10.3651C11.0199 14.0412 11.1949 17.4887 11.6597 18.753ZM21.8966 33.7783C21.8966 33.7783 27.3761 33.5035 27.9664 33.5035C28.5568 33.5035 28.8028 33.1219 28.8028 33.1948C28.8028 33.2678 28.7208 33.6325 28.5568 33.7783C28.3927 33.9242 25.2596 34.087 25.2596 34.087C25.2596 34.087 21.8146 34.2329 20.9943 34.087C20.1741 33.9411 21.1092 33.7783 21.8966 33.7783Z" stroke="black" stroke-width="3"/>
<path d="M20.0723 6.33372C19.5006 5.89006 18.0629 5.13582 16.8867 5.66822C15.4164 6.33372 14.6813 6.25978 13.9461 6.99922C13.211 7.73867 11.2506 8.18234 10.0254 9.88306C8.80012 11.5838 8.14666 12.8408 8.22834 14.3197C8.31003 15.7986 8.71844 16.2423 7.73825 18.3867C6.75806 20.5311 5.69618 21.4924 5.6145 22.7494" stroke="black" stroke-width="5" stroke-linecap="round"/>
<path d="M19.3608 38.7833C19.3608 38.7833 18.8149 40.7777 17.6505 42.0752C16.486 43.3727 14.8 42.7184 13.0897 43.2457C10.8381 43.9398 7.47016 45.3671 7.47016 45.3671C7.14439 45.5134 6.32997 45.8792 5.35266 46.9034C4.37535 47.9275 0.554604 50.5611 2.58682 50.5611C4.61904 50.5611 47.9412 51 49.5791 51C51.217 51 47.6548 48.0205 46.0739 46.5376C43.5945 44.2119 37.9296 42.7336 37.9296 42.7336C37.9296 42.7336 33.5317 41.7094 32.473 41.3437C31.4142 40.9779 31.2513 38.2712 31.2513 38.2712L31.0885 38.0518" stroke="#0D0B0B" stroke-width="3"/>
<path d="M20.5061 5.87076C20.8328 5.65761 21.21 5.53412 21.5698 5.37315C21.9939 5.18342 22.4156 4.99469 22.863 4.85139C23.7035 4.58213 24.4931 4.3023 25.2873 3.93829C26.8546 3.22005 28.6996 3.26193 30.4141 3.26193C31.4777 3.26193 32.5578 3.28567 33.562 3.65326C33.8708 3.76627 34.167 3.98288 34.4529 4.13637C34.7819 4.31296 35.169 4.57567 35.4032 4.85139C35.7672 5.27989 36.1491 5.66409 36.4561 6.12198C36.757 6.57061 36.9656 7.06357 37.2553 7.51819C37.612 8.07805 37.8913 8.62637 38.1192 9.23808C38.2139 9.49241 38.2991 9.7687 38.3621 10.0304C38.4736 10.4929 38.6426 10.8778 38.84 11.3155C39.0655 11.8156 39.1627 12.3868 39.3233 12.9049C39.5488 13.6328 39.8888 14.3089 40.1872 15.0113C40.4871 15.7175 40.63 16.4777 41.0187 17.154C41.3884 17.7972 41.9377 18.303 42.4873 18.8207C42.6196 18.9452 42.7186 19.1048 42.8707 19.2096C43.0258 19.3166 43.1999 19.4061 43.3459 19.5236C43.4523 19.6093 43.7318 19.649 43.7832 19.741" stroke="black" stroke-width="5" stroke-linecap="round"/>
<path d="M21.0842 5.30422C21.589 5.0138 22.0886 4.82974 22.6386 4.6237C23.0247 4.47907 23.4349 4.4243 23.8281 4.30234C24.7154 4.02714 25.5909 3.78712 26.5395 3.73051C28.0793 3.63863 29.7279 3.60297 31.2568 3.77541C32.5778 3.9244 34.0948 4.29057 35.1198 5.05848C35.8755 5.62469 36.4727 6.4062 37.0608 7.10477C37.5668 7.70585 38.1003 8.35809 38.726 8.86751C39.4108 9.42505 39.9626 10.1527 40.3994 10.8713C40.6402 11.2676 40.9529 11.6263 41.1806 12.0244" stroke="black" stroke-width="5" stroke-linecap="round"/>
<path d="M19.9277 6.21902C20.4786 5.63363 20.9047 4.98655 21.6899 4.61721C22.845 4.07384 24.1441 3.80547 25.4298 3.63498C26.2531 3.52579 27.0841 3.53892 27.914 3.53892C28.8551 3.53892 29.884 3.44908 30.7944 3.70223C31.9485 4.02317 32.9107 4.92743 33.6208 5.76753C34.2664 6.53124 34.5779 7.46767 34.9141 8.36118C35.3342 9.47728 36.0093 10.4536 36.908 11.3174C38.0434 12.4088 39.4058 13.3141 40.7611 14.1729C41.1666 14.4298 41.569 14.6944 41.952 14.9774C42.2099 15.1679 42.472 15.4229 42.7711 15.5561" stroke="black" stroke-width="5" stroke-linecap="round"/>
<path d="M20.0723 6.40086C21.0639 5.65017 22.2051 5.1326 23.4171 4.71823C24.895 4.21298 26.4317 4.31089 27.9922 4.32402C29.1834 4.33404 30.3078 4.52593 31.4487 4.8216C32.507 5.09585 33.6217 5.40188 34.6167 5.82636C35.3546 6.14121 36.1198 6.54373 36.7504 7.00901C37.3954 7.48495 38.0881 7.94348 38.6501 8.49694C39.7207 9.55114 40.1787 10.8261 40.6478 12.1458C40.9718 13.0573 41.3168 13.957 41.6766 14.8573C41.8245 15.2274 42.0381 15.5584 42.2536 15.9005C42.4626 16.2323 42.6136 16.5987 42.8523 16.9149C43.1217 17.2717 43.5195 17.5608 43.7831 17.91" stroke="black" stroke-width="3" stroke-linecap="round"/>
<path d="M20.9398 6.2666C23.007 4.57907 26.1431 4.58108 28.6712 5.24565C29.6198 5.49501 30.4471 5.91246 31.3057 6.33883C32.1007 6.73366 32.9453 7.05243 33.7197 7.48017C34.8853 8.12401 35.7309 9.11255 36.5262 10.0879C37.0923 10.7822 37.2394 11.6355 37.5128 12.4428C37.822 13.3556 38.0263 14.245 38.5881 15.0723C40.0966 17.2934 42.2271 19.2875 44.7952 20.5261" stroke="black" stroke-width="5" stroke-linecap="round"/>
<path d="M19.2048 6.34209C19.526 5.97848 19.9509 5.73886 20.3566 5.45576C21.0988 4.93791 21.7609 4.4255 22.6872 4.18647C23.6083 3.94883 24.5796 3.92476 25.5316 3.91672C27.0936 3.90353 28.605 4.02565 30.1117 4.41047C30.9559 4.62608 31.8531 4.87577 32.6045 5.29198C33.1783 5.60981 33.5382 6.06948 33.8374 6.5974C34.1999 7.23689 34.6237 7.83068 35.0352 8.44472C35.4635 9.08399 35.8043 9.77956 36.2005 10.4366C36.7885 11.4117 37.2667 12.4379 37.866 13.4063C38.0976 13.7805 38.2964 14.1565 38.6014 14.4901C38.9567 14.8788 39.3528 15.2394 39.7369 15.6052C40.6391 16.4646 41.5801 17.3886 42.7381 17.98C42.9203 18.0731 43.7239 18.5758 43.9277 18.3943" stroke="black" stroke-width="5" stroke-linecap="round"/>
<path d="M20.6506 6.17139C20.957 5.3254 22.1165 5.32495 22.9585 5.2624C23.9074 5.19192 24.865 5.20622 25.7966 5.40057C27.2588 5.70562 28.804 6.21983 30.0911 6.91798C30.7941 7.29932 31.2669 7.82282 31.7725 8.38933C32.381 9.07123 32.9364 9.78191 33.5047 10.4909C34.3586 11.5563 35.0473 12.6975 35.6975 13.8748C36.317 14.9965 36.8865 16.199 37.7216 17.2102C38.1773 17.762 38.7046 18.1921 39.3066 18.6088C40.3829 19.354 41.5218 19.9429 42.7711 20.3953" stroke="black" stroke-width="5" stroke-linecap="round"/>
<path d="M20.3613 6.53807C20.8799 5.92611 21.6598 5.43677 22.4868 5.21616C23.0595 5.06338 23.7346 5.09242 24.3249 5.09995C25.502 5.11497 26.6155 5.50101 27.7164 5.83838C28.8181 6.17596 29.8779 6.55744 30.9127 7.03681C31.842 7.46728 32.8236 7.91461 33.6184 8.53303C34.2546 9.02804 34.72 9.69184 35.1799 10.3149C35.7576 11.0975 36.256 11.9073 36.7768 12.7191C37.4859 13.8245 37.8437 15.1394 38.3139 16.3361C38.8429 17.6824 39.1466 19.103 40.0165 20.3236C40.7066 21.2921 41.6504 22.2467 42.8224 22.7617C43.0759 22.8731 43.3512 23.011 43.6384 23.011" stroke="black" stroke-width="5" stroke-linecap="round"/>
<path d="M20.6506 5.98036C20.9075 5.0539 22.4917 4.83483 23.3393 4.76579C24.6446 4.65948 26.0188 4.64783 27.2812 4.99806C28.8385 5.43011 30.2461 6.27016 31.5155 7.17558C32.3502 7.77098 32.9847 8.63495 33.4716 9.48376C34.0524 10.4961 34.6204 11.493 35.3097 12.45C36.609 14.2538 37.9377 16.0171 39.0905 17.9035C39.2658 18.1902 39.3781 18.4927 39.5735 18.7794C39.9101 19.2731 40.2633 19.7903 40.6979 20.2214C41.1375 20.6574 41.6838 20.9182 42.3374 20.9182" stroke="black" stroke-width="5" stroke-linecap="round"/>
<path d="M19.9277 6.10448C20.6173 6.09319 21.276 5.97983 21.9572 5.89658C22.7836 5.79559 23.6153 5.75637 24.449 5.75637C24.7887 5.75637 25.1636 5.71903 25.4965 5.79021C25.9828 5.89419 26.3749 6.2211 26.7055 6.53478C27.2709 7.07123 27.7612 7.66719 28.3028 8.22213C28.7982 8.72969 29.3354 9.20638 29.7524 9.76927C30.2231 10.4046 30.6048 11.0895 31.0872 11.7177C31.5848 12.3656 32.1897 12.9395 32.6791 13.5936C33.3755 14.5244 34.0345 15.5225 34.8562 16.3736C35.4768 17.0164 36.1477 17.7183 36.9213 18.223C37.2472 18.4356 37.6343 18.5955 38.0017 18.7427C38.4285 18.9138 38.8793 18.9659 39.3146 19.1053C39.6187 19.2027 40.1846 19.2961 40.4579 19.115" stroke="black" stroke-width="5" stroke-linecap="round"/>
<path d="M19.4939 6.40063C20.0088 6.41208 20.4742 6.52122 20.962 6.65613C21.9264 6.92284 22.9261 7.02907 23.9065 7.23337C24.596 7.37705 25.3108 7.45382 25.9531 7.72307C26.3303 7.88118 26.8364 8.00964 27.1565 8.2317" stroke="black" stroke-width="3" stroke-linecap="round"/>
<path d="M20.0723 6.34551C21.3788 6.05751 22.9752 6.02685 24.2092 6.53476C25.0798 6.89308 25.8642 7.38351 26.6547 7.85469C27.4491 8.32826 28.2446 8.80054 29.0361 9.27764" stroke="black" stroke-width="5" stroke-linecap="round"/>
<path d="M21.5181 5.22494C23.8244 5.22494 26.3352 5.14585 28.4041 6.2172C29.1019 6.57858 29.6876 7.09293 30.2173 7.62983C30.9423 8.36459 31.603 9.12146 32.2169 9.93208" stroke="black" stroke-width="3" stroke-linecap="round"/>
<path d="M21.3735 6.06635C22.0468 5.81314 22.8031 5.88626 23.5184 5.89123C24.3726 5.89716 25.2211 5.93964 26.0342 6.19769C26.6069 6.37947 27.113 6.72561 27.62 7.01978C28.2353 7.37679 28.7325 7.8137 29.2165 8.30642C30.3104 9.42003 31.5409 10.419 32.6596 11.5145C33.15 11.9947 33.4897 12.4964 33.8073 13.0711" stroke="black" stroke-width="3" stroke-linecap="round"/>
<path d="M22.5303 5.7525C24.3027 5.67548 26.0569 6.36368 27.6249 7.01729C29.28 7.70721 30.9065 8.5862 32.0453 9.8714C33.0953 11.0564 33.7895 12.3766 34.5626 13.7039C34.7858 14.087 35.0989 14.4957 35.2532 14.9019" stroke="black" stroke-width="5" stroke-linecap="round"/>
<path d="M29.1807 8.23145C30.0171 8.92013 30.8383 9.62792 31.5789 10.4016C32.85 11.7295 33.9599 13.2084 35.0203 14.6765C35.9946 16.0256 36.9894 17.4007 38.225 18.5711C38.6351 18.9595 39.0548 19.3686 39.529 19.695C39.9187 19.9632 40.2833 20.0438 40.7469 20.1334" stroke="black" stroke-width="5" stroke-linecap="round"/>
<path d="M20.3613 6.23476C21.0887 6.1661 21.8141 6.15909 22.5456 6.15572C23.1798 6.15279 23.9419 6.09484 24.5784 6.21081C24.931 6.27504 25.2741 6.62783 25.5339 6.82158C25.8666 7.06975 26.2506 7.28808 26.5191 7.59523C26.7912 7.90645 27.0168 8.27615 27.2201 8.62516C27.424 8.97508 27.6556 9.31222 27.8535 9.66467C28.094 10.0929 28.2265 10.5566 28.4057 11.006C28.7751 11.9322 29.1954 12.8907 29.6697 13.7796C30.4362 15.2159 31.2854 16.6913 32.9828 17.3963C34.6403 18.0848 36.2924 18.6945 38.1445 18.6945" stroke="black" stroke-width="5" stroke-linecap="round"/>
<path d="M21.518 5.48511C21.1681 5.96161 20.5377 6.23243 19.988 6.48783C19.1562 6.87436 18.5558 7.41117 17.9724 8.06216C17.4103 8.68931 17.0395 9.35683 16.7366 10.116C16.3311 11.1325 15.9781 12.1462 15.5278 13.1484C15.1213 14.0531 14.7352 14.917 14.2056 15.7739C13.6617 16.6541 13.0468 17.4812 12.3923 18.2977C11.7533 19.0949 11.0299 19.8304 10.1339 20.4049C9.79476 20.6223 9.38109 20.7827 9.08423 21.0491" stroke="black" stroke-width="5" stroke-linecap="round"/>
<path d="M17.1808 7.83936C16.8147 9.27852 16.2442 10.7157 15.6598 12.0914C14.7905 14.1377 13.5974 16.0759 12.205 17.8659C11.9849 18.1488 9.80784 21.0683 9.229 20.4368" stroke="black" stroke-width="3" stroke-linecap="round"/>
<path d="M19.2049 6.41216C18.8499 6.37778 18.7256 6.41123 18.4736 6.63784C17.93 7.12669 17.4259 7.64838 16.9462 8.18847C15.4127 9.91533 15.1789 12.2066 14.3044 14.2163C13.1861 16.7862 11.8129 19.2354 9.86528 21.3822C9.11516 22.2091 8.22569 23.2726 6.91577 23.2726" stroke="black" stroke-width="5" stroke-linecap="round"/>
<path d="M19.3494 6.40063C18.6568 6.40631 18.0117 6.43991 17.3666 6.68405C16.5005 7.01186 15.6931 7.44002 14.9103 7.9042C13.8641 8.52463 12.8489 9.31844 11.9993 10.1451C11.1393 10.982 10.6218 12.0227 10.256 13.0994C9.98113 13.9082 9.82322 14.7392 9.70176 15.5757C9.58423 16.3851 9.60235 17.1849 9.54572 17.9968C9.45345 19.3196 9.37354 20.6371 9.37354 21.9647" stroke="black" stroke-width="5" stroke-linecap="round"/>
<path d="M19.7832 6.71959C18.8891 6.5316 18.3145 6.83969 17.498 7.13953C16.1842 7.62198 14.8242 7.87349 13.7001 8.70479C13.1371 9.1211 12.6854 9.6332 12.2672 10.1651C11.9637 10.5509 11.6196 10.9571 11.4149 11.3963C11.2447 11.7615 11.1563 12.1642 11.026 12.5416C10.8041 13.1846 10.5758 13.8246 10.3975 14.4791C9.7185 16.9715 9.81156 19.5493 9.81156 22.0953" stroke="black" stroke-width="5" stroke-linecap="round"/>
<path d="M19.3495 6.66211C19.1414 8.15572 18.6041 9.64953 18.0605 11.0693C17.3542 12.9136 16.2219 14.5881 15.2442 16.3214C14.574 17.5094 13.8808 18.5766 12.8232 19.5331C12.1815 20.1135 11.5046 20.6398 10.8193 21.1798" stroke="black" stroke-width="5" stroke-linecap="round"/>
<path d="M18.9156 7.31592C18.6138 7.90806 18.0381 8.38354 17.6332 8.91945C16.7984 10.0242 16.0249 11.194 15.3815 12.3986C14.5693 13.9192 14.2678 15.5656 13.5823 17.1249C13.1995 17.9957 12.8808 18.9056 12.4551 19.759C12.1941 20.2823 11.778 20.6764 11.3172 21.0615C10.8774 21.4292 10.5203 21.7785 9.95178 21.9644" stroke="black" stroke-width="3" stroke-linecap="round"/>
<path d="M19.2049 6.66211C18.8541 6.68731 18.5262 6.80883 18.2092 6.9409C17.5083 7.23293 16.7917 7.58046 16.1642 7.98398C14.9054 8.79354 13.9518 10.0274 12.9951 11.1036C12.295 11.8912 11.6724 12.7406 11.1723 13.644C10.2417 15.3251 9.81004 17.2703 9.46194 19.1118C9.18667 20.5679 9.23175 22.0618 9.23175 23.534" stroke="black" stroke-width="5" stroke-linecap="round"/>
<path d="M19.9277 6.79675C19.2668 6.76019 18.7049 6.99468 18.1171 7.252C16.3241 8.03692 14.6164 9.10264 13.3528 10.4993C12.4986 11.4434 11.7534 12.5105 11.3395 13.674C11.0148 14.5866 10.7139 15.4982 10.4882 16.4346C10.2434 17.4509 10.0061 18.4465 9.91262 19.4858C9.78521 20.9025 9.71984 22.3272 9.67481 23.7478C9.65103 24.4978 9.64151 25.251 9.58833 25.9999C9.57247 26.2233 9.51807 26.4493 9.51807 26.6731" stroke="black" stroke-width="5" stroke-linecap="round"/>
<path d="M18.1927 7.7085C17.4998 8.84491 16.1971 9.58377 15.1514 10.4489C13.8451 11.5296 12.7708 12.864 11.8898 14.2323C10.4958 16.3975 10.1654 19.1285 10.5136 21.5723" stroke="black" stroke-width="3" stroke-linecap="round"/>
<path d="M18.6265 6.9441C18.1195 6.9441 17.4802 6.86383 16.9931 7.02083C16.1117 7.30493 15.3933 7.79272 14.6859 8.32524C13.3586 9.32438 12.0936 10.2797 11.1443 11.5934C10.4576 12.5437 9.75064 13.4759 9.21982 14.5068C8.85192 15.2212 8.62385 15.9643 8.46783 16.7367C8.29535 17.5906 8.16286 18.502 8.10935 19.3695C8.06162 20.1432 8.09857 20.9254 8.09857 21.7002C8.09857 21.828 7.99612 22.2673 8.1956 22.2229" stroke="black" stroke-width="5" stroke-linecap="round"/>
<path d="M17.7589 6.70767C17.2472 6.66697 16.739 6.66342 16.2256 6.66342C15.6959 6.66342 15.1721 6.63902 14.6649 6.80111C13.1432 7.28739 11.9028 8.29993 10.8674 9.37787C10.5061 9.75397 10.2181 10.1739 9.88363 10.5679C9.5441 10.9678 9.17951 11.351 8.85044 11.7579C8.6814 11.967 8.49051 12.1857 8.36133 12.4169" stroke="black" stroke-width="3" stroke-linecap="round"/>
<path d="M16.1687 7.05444C15.605 7.06464 15.1112 7.40755 14.6158 7.6212C13.7179 8.00853 12.9199 8.47682 12.2062 9.11318C11.4787 9.76181 10.898 10.4878 10.3267 11.2494C10.0112 11.67 9.70739 12.1019 9.53953 12.5912C9.47056 12.7923 9.45829 13.0099 9.37354 13.2016" stroke="black" stroke-width="3" stroke-linecap="round"/>
<path d="M16.4579 7.31592C15.2591 7.31592 14.1317 7.40057 13.1594 8.06737C12.381 8.60121 11.6499 9.16432 11.0978 9.89367C10.4253 10.7821 9.99648 11.8416 9.6199 12.8543C9.43783 13.3439 9.229 13.8566 9.229 14.3786" stroke="black" stroke-width="3" stroke-linecap="round"/>
<path d="M11.8314 8.75488C10.9333 9.46975 10.6284 10.4463 10.1592 11.3782C9.71371 12.2633 9.51746 13.1864 9.18056 14.1029C8.80651 15.1204 8.51659 16.0508 8.50946 17.1217C8.50622 17.6075 8.45397 18.0947 8.91212 18.4334" stroke="black" stroke-width="4" stroke-linecap="round"/>
<path d="M16.3132 9.14722C15.8436 9.95829 15.3102 10.7475 14.7818 11.5288C14.3186 12.2137 13.81 12.8728 13.352 13.5606C12.7538 14.4592 12.2392 15.3991 11.759 16.352C10.9781 17.9016 10.325 19.5101 9.95178 21.1799" stroke="black" stroke-width="3" stroke-linecap="round"/>
<path d="M15.4457 7.7085C14.7692 8.86398 14.3108 10.1251 13.8369 11.3507C13.2202 12.946 12.6903 14.5505 12.217 16.1819C11.7769 17.6985 11.3638 19.2208 10.9255 20.7378C10.7481 21.3518 10.5052 21.9899 10.3855 22.6186" stroke="black" stroke-width="3" stroke-linecap="round"/>
<path d="M16.024 9.80078C15.1436 10.8884 14.1717 11.9893 13.5483 13.2136C12.9137 14.4599 12.4818 15.8427 12.0946 17.1624C11.7169 18.4496 11.5476 19.7527 11.2529 21.0487" stroke="black" stroke-width="3" stroke-linecap="round"/>
<path d="M10.2409 12.417C8.68815 15.2179 8.07227 18.3544 8.07227 21.4415" stroke="black" stroke-width="3" stroke-linecap="round"/>
<path d="M12.1206 12.1555C10.8068 14.8698 9.93128 17.6497 9.41107 20.5666C9.33571 20.9891 9.229 21.4051 9.229 21.834" stroke="black" stroke-width="3" stroke-linecap="round"/>
<path d="M19.0601 9.93164C18.5066 11.2574 17.8754 12.5587 17.2323 13.8529C16.7396 14.8444 16.2252 15.8234 15.8794 16.8635" stroke="black" stroke-width="3" stroke-linecap="round"/>
<path d="M18.1928 7.7085C17.1753 10.4389 16.4531 13.2605 15.1163 15.8968C14.8116 16.4978 14.4784 17.0875 14.1553 17.6813C14.0944 17.7932 13.9235 18.1427 13.8555 18.1717" stroke="black" stroke-width="3" stroke-linecap="round"/>
<path d="M19.9277 4.56934C19.0237 8.11431 17.6667 11.5873 16.3584 15.0214C16.0941 15.7151 15.8347 16.4394 15.4654 17.0943C15.3177 17.3562 15.3011 17.2694 15.3011 17.0505" stroke="black" stroke-width="3" stroke-linecap="round"/>
<path d="M20.3614 6.26953C19.5907 9.18237 18.0899 11.8757 16.4062 14.4633C15.8238 15.3585 15.2556 16.2651 14.5233 17.0773C14.3283 17.2936 14.1834 17.5777 14.1445 17.2075" stroke="black" stroke-width="3" stroke-linecap="round"/>
<path d="M19.6386 7.31592C19.1717 8.49839 18.4715 9.50484 17.5883 10.4784C17.1025 11.0141 16.63 11.5921 16.0242 12.0244" stroke="black" stroke-width="3" stroke-linecap="round"/>
<path d="M20.7952 7.05444C21.4354 7.3059 21.9427 7.78879 22.5578 8.09174C24.0232 8.8136 25.6563 9.11492 27.2887 9.29942C30.1276 9.62031 32.9753 9.67025 35.8313 9.67025" stroke="black" stroke-width="3" stroke-linecap="round"/>
<path d="M23.8313 6.92358C26.4365 7.87197 29.215 8.36497 32.0134 8.63934C32.8873 8.72503 33.8961 8.84324 34.7657 8.65108C35.0903 8.57935 35.3597 8.44783 35.3976 8.14879" stroke="black" stroke-width="3" stroke-linecap="round"/>
<path d="M25.4216 6.25516C26.1895 5.69056 27.1067 5.48709 28.0795 5.33315C29.0141 5.18528 29.9491 5.17457 30.8766 5.37901C32.181 5.66652 33.2263 6.30591 34.1731 7.1313C35.094 7.93413 35.9107 8.83217 36.741 9.70663C37.7795 10.8004 38.8408 11.8877 39.7864 13.0471C40.1327 13.4717 40.601 13.9936 40.7469 14.5097" stroke="black" stroke-width="3" stroke-linecap="round"/>
<path d="M29.4697 4.5436C31.1464 4.2626 33.1851 4.52727 34.5032 5.55173C35.614 6.41517 36.5458 7.55544 37.1024 8.77436C37.7232 10.1339 38.0478 11.5949 38.5602 12.9882C38.6957 13.3565 39.0119 13.8528 39.0119 14.2477" stroke="black" stroke-width="3" stroke-linecap="round"/>
<path d="M27.735 4.70119C28.2219 4.70119 28.7114 4.69356 29.1976 4.7205C30.2119 4.77668 31.0884 5.02756 31.9536 5.5071C33.7216 6.48709 35.1665 7.78039 36.1077 9.44978C36.6057 10.3331 37.0311 11.2571 37.4251 12.1812C37.8105 13.0848 38.0658 14.0235 38.4253 14.9343C38.5889 15.3486 38.7787 15.7585 38.9953 16.1528C39.0545 16.2605 39.1246 16.3561 39.1567 16.4713" stroke="black" stroke-width="3" stroke-linecap="round"/>
<path d="M32.6506 5.87769C33.8448 6.54034 35.001 7.23115 36.0241 8.10165C36.993 8.92591 37.6598 9.87679 38.2597 10.9356C39.0978 12.4148 39.7627 13.8757 39.8206 15.5517C39.8857 17.4329 39.6165 19.6769 40.8916 21.3109" stroke="black" stroke-width="3" stroke-linecap="round"/>
<path d="M37.4216 11.5015C38.1399 14.2104 39.4342 16.6593 41.0457 19.0209C41.2923 19.3823 41.5162 19.8419 41.8784 20.1275C41.928 20.1666 41.889 20.0089 41.889 19.9495C41.889 19.6736 41.889 19.3978 41.889 19.122" stroke="black" stroke-width="3" stroke-linecap="round"/>
<path d="M37.1326 7.7085C37.3496 8.44004 37.7396 9.03716 38.1085 9.71183C39.0044 11.3505 39.6512 13.0437 40.1795 14.8022C40.5709 16.1051 40.9309 17.3896 41.009 18.7413C41.0383 19.2484 41.0361 20.2644 41.0361 20.2644" stroke="black" stroke-width="3" stroke-linecap="round"/>
<path d="M19.4939 7.18555C18.9575 8.61092 18.4927 10.0525 17.9938 11.4895C17.2864 13.5273 16.9168 15.6833 15.6346 17.5154C15.1481 18.2106 14.7365 18.9465 14.2423 19.636C13.8486 20.1852 13.3566 20.6699 12.885 21.1648C12.4061 21.6673 11.8944 22.2736 11.2529 22.6188" stroke="black" stroke-width="3" stroke-linecap="round"/>
<path d="M17.7591 8.49341C16.9437 9.73716 16.2916 11.079 15.6172 12.388C14.56 14.4402 13.351 16.4211 12.1955 18.4286C11.3937 19.8217 10.5991 21.2137 9.91437 22.6575C9.75044 23.0031 9.58275 23.3406 9.37354 23.6651" stroke="black" stroke-width="3" stroke-linecap="round"/>
<path d="M15.5904 9.14722C15.221 10.512 14.7467 11.8528 14.3504 13.2118C13.8952 14.7721 13.6051 16.3652 13.2118 17.9373C13.0134 18.7304 12.8016 19.517 12.7383 20.3277C12.7263 20.481 12.6989 20.7875 12.6989 20.7875" stroke="black" stroke-width="3" stroke-linecap="round"/>
<path d="M19.0601 5.22363C17.4816 8.91384 15.617 12.5226 14.3319 16.3073C14.0855 17.0328 13.981 17.8974 13.5662 18.5642" stroke="black" stroke-width="4" stroke-linecap="round"/>
<path d="M16.1686 9.27808C14.2818 11.8675 12.7661 14.6489 11.9758 17.6486" stroke="black" stroke-width="3" stroke-linecap="round"/>
<path d="M37.8796 19.218C37.8067 19.7779 37.9102 20.2957 38.0395 20.8451C38.2948 21.9294 38.6151 23.0001 38.9834 24.0566C39.4981 25.5333 40.2858 26.8664 41.0362 28.2425" stroke="black" stroke-width="3" stroke-linecap="round"/>
<path d="M37.7109 15.8174C37.7109 17.0122 38.0812 18.0863 38.5463 19.2085C39.0386 20.3966 39.6721 21.5149 40.2919 22.6522C40.5752 23.1719 40.8406 23.6956 41.1808 24.188" stroke="black" stroke-width="3" stroke-linecap="round"/>
<path d="M38.4885 14.7712C38.4407 15.3472 38.4412 15.9221 38.4412 16.4995C38.4412 17.6852 38.4103 18.8754 38.4754 20.0599C38.6132 22.5682 38.8139 25.0772 38.8676 27.5887" stroke="black" stroke-width="3" stroke-linecap="round"/>
<path d="M38.4336 16.8638C38.2125 18.9294 38.3109 21.0924 38.3109 23.1866C38.3109 24.6975 38.3109 26.2084 38.3109 27.7194" stroke="black" stroke-width="3" stroke-linecap="round"/>
<path d="M36.7697 16.21C36.7194 17.3314 36.7154 18.4515 36.7154 19.5735C36.7154 20.8874 36.6502 22.2144 36.7788 23.5256C36.8121 23.8659 37.2025 26.9348 37.4217 26.9348" stroke="black" stroke-width="3" stroke-linecap="round"/>
<path d="M38.1446 14.2478C37.7324 19.7298 37.8819 25.2371 37.8819 30.7274" stroke="black" stroke-width="3" stroke-linecap="round"/>
<path d="M39.5639 15.2944C39.4866 17.3215 39.4206 19.3523 39.4553 21.3818C39.4693 22.2004 39.5281 23.028 39.696 23.826C39.7327 24.0003 39.7817 24.6794 40.0241 24.5683" stroke="black" stroke-width="3" stroke-linecap="round"/>
<path d="M39.9132 15.5559C39.7961 18.047 39.9288 20.7635 41.1958 23.0458C41.3894 23.3945 41.6181 23.7276 41.8095 24.0772C41.8466 24.1449 41.8411 24.1609 41.9035 24.1881" stroke="black" stroke-width="3" stroke-linecap="round"/>
<path d="M37.5662 14.3787C37.6317 16.9044 37.8145 19.535 38.9229 21.8744C39.1435 22.3401 39.4618 22.7166 39.7348 23.1416" stroke="black" stroke-width="3" stroke-linecap="round"/>
<path d="M35.1084 10.8477C35.1745 12.4733 35.6228 13.8962 36.4029 15.3718C37.1024 16.6949 38.0292 17.9021 39.1538 18.9627C39.9171 19.6825 40.7533 20.4688 41.759 20.9185" stroke="black" stroke-width="3" stroke-linecap="round"/>
<path d="M33.8157 10.1934C33.7652 11.8989 33.9332 13.6901 34.5169 15.3203C34.9616 16.5623 35.6593 17.7443 36.34 18.8928C36.9335 19.8941 37.5791 20.8474 38.2818 21.7894C38.6005 22.2166 38.8943 22.6466 39.3012 23.0108" stroke="black" stroke-width="3" stroke-linecap="round"/>
<path d="M20.5061 7.18555C22.2563 7.97904 24.2446 8.26422 26.2138 8.43774C27.3396 8.53694 28.481 8.62424 29.6145 8.62424" stroke="black" stroke-width="3" stroke-linecap="round"/>
<path d="M21.0842 7.18555C22.1712 7.48245 23.2598 7.78433 24.3979 7.94001C25.3114 8.06498 26.2311 8.10108 27.1565 8.10108" stroke="black" stroke-width="3" stroke-linecap="round"/>
<path d="M21.9518 6.66211C21.7205 7.52886 21.1507 8.24336 20.5073 8.87556C19.9212 9.45149 19.306 10.0824 18.4819 10.3242" stroke="black" stroke-width="3" stroke-linecap="round"/>
<path d="M20.497 6.92358C20.497 7.29121 20.5598 7.72202 20.3552 8.05952C20.1463 8.4044 19.7597 8.72734 19.4256 8.98716C19.0188 9.30362 18.5155 9.56138 18.0482 9.80097" stroke="black" stroke-width="3" stroke-linecap="round"/>
<path d="M9.80714 15.8174C9.59728 17.6498 7.80106 18.8027 6.771 20.2642" stroke="black" stroke-width="3" stroke-linecap="round"/>
<path d="M20.9399 6.21971C19.7402 6.00567 18.395 5.955 17.1755 6.06302C15.7423 6.18995 14.4166 7.02945 13.4651 7.94092C11.6724 9.65815 10.9525 11.8574 10.5303 14.117" stroke="black" stroke-width="4" stroke-linecap="round"/>
<path d="M15.7349 7.83936C14.8753 8.50834 13.9722 9.14651 13.1923 9.89339C12.7642 10.3033 12.1532 10.8086 11.9758 11.3707" stroke="black" stroke-width="3" stroke-linecap="round"/>
<path d="M12.8433 9.67065C12.5121 10.2798 12.0663 10.9356 11.9758 11.6325" stroke="black" stroke-width="3" stroke-linecap="round"/>
<path d="M13.9117 8.98947C13.4818 9.79808 13.0946 10.6262 12.6988 11.4483C12.6253 11.601 12.731 11.4772 12.7827 11.4195C13.0765 11.0919 13.3567 10.7552 13.6572 10.4322C14.6006 9.41809 15.6516 8.56382 16.7706 7.70972C16.8713 7.63287 17.0395 7.35998 17.0684 7.47486C17.1355 7.74218 16.8576 8.19492 16.7516 8.4119C16.1943 9.5527 15.5293 10.6576 14.7563 11.6951C14.5046 12.033 14.2368 12.3591 13.9658 12.6849C13.8855 12.7815 13.7456 12.9147 13.6924 13.0324C13.6229 13.1861 13.893 12.753 13.9929 12.613C14.4217 12.0122 14.8618 11.418 15.3005 10.8228C15.748 10.2157 16.2182 9.61379 16.6081 8.97509C16.7281 8.77861 17.0411 8.18946 16.8572 8.3424C16.4596 8.6732 16.0956 9.09631 15.7472 9.45919C14.9292 10.3113 14.1401 11.1829 13.3594 12.0618C12.9017 12.5771 12.4559 13.1015 11.9624 13.5908C11.8493 13.7029 11.5785 14.052 11.5942 13.9023C11.6196 13.6614 11.9928 13.1544 12.0843 13.0013C12.5986 12.1401 13.1439 11.2939 13.6572 10.4322C14.199 9.52266 15.6875 6.73288 15.1895 7.66179C14.3765 9.17836 13.3711 10.6085 12.4308 12.0642C11.9454 12.8157 10.6113 15.1279 11.1069 14.3817C11.9266 13.1474 12.8676 11.9743 13.8305 10.8252C14.2182 10.3625 14.6167 9.90675 15.0162 9.452C15.05 9.41356 15.153 9.30008 15.1245 9.34176C15.0039 9.51834 14.8753 9.69057 14.7536 9.8666C14.1048 10.8055 13.5088 11.7786 13.067 12.8095C13.0308 12.894 12.9505 13.141 13.0237 13.0779C13.3004 12.8394 13.5363 12.5272 13.7601 12.2535C14.2929 11.6018 14.968 10.8479 15.2599 10.0727C15.3427 9.85275 14.9829 10.4663 14.843 10.6622C14.3328 11.3767 13.8051 12.0824 13.2673 12.7808C13.1039 12.9931 12.9402 13.2289 12.753 13.4278C12.6355 13.5526 12.9018 13.131 12.9749 12.9821C13.0488 12.8319 13.8919 10.8203 13.8359 10.8156C13.7901 10.8118 13.7702 10.8733 13.7438 10.9067C13.6156 11.0691 13.339 11.5002 13.2592 11.6209C12.8447 12.2478 12.4243 12.8703 11.9787 13.4806C11.6808 13.8884 11.3616 14.2849 11.0771 14.7004C10.9881 14.8305 10.9697 14.8613 10.9093 14.9736C10.8949 15.0004 10.9402 14.921 10.9553 14.8945C11.5244 13.9013 12.0037 12.8879 12.3035 11.803C12.4162 11.3954 12.501 10.9849 12.5364 10.5664C12.5415 10.5053 12.5305 10.3351 12.4931 10.3866C12.2495 10.7221 12.0761 11.131 11.8974 11.4914C11.5544 12.1837 11.2234 12.8812 10.9012 13.5812C10.7388 13.934 10.5924 14.2909 10.4355 14.6453C10.4234 14.6726 10.3773 14.7501 10.3868 14.722C10.4186 14.6281 10.5161 14.4472 10.5492 14.3817C11.0775 13.3355 11.5198 12.2632 11.9245 11.1751C11.9882 11.004 12.0383 10.7954 12.1276 10.6287C12.2099 10.4747 12.0485 10.9622 12.0003 11.1272C11.7936 11.8351 11.6124 12.5685 11.5617 13.3008C11.5522 13.4386 11.7222 13.0636 11.7892 12.9389C12.1575 12.2536 12.5426 11.5748 12.8829 10.8779C13.0199 10.5973 13.1136 10.289 13.2592 10.0128C13.3567 9.82795 13.2478 10.421 13.224 10.6239C13.081 11.8432 12.8848 13.0583 12.8504 14.2858C12.8496 14.3144 12.7753 14.7679 12.9885 14.6573C13.3761 14.4561 13.708 13.9759 13.9496 13.6675C14.8788 12.481 15.6823 11.1723 16.4592 9.90254C16.8877 9.20235 15.8228 11.3926 15.4738 12.1265C14.8709 13.3945 14.2595 14.6695 13.5706 15.9034C13.5412 15.956 13.5135 16.0095 13.4785 16.0592C13.406 16.1624 13.5902 15.8371 13.6518 15.7285C14.0852 14.9633 14.5152 14.2008 14.9025 13.4159C15.3283 12.5531 15.7122 11.6751 16.1208 10.806C16.2012 10.6352 16.3627 10.2882 16.4782 10.0919C16.517 10.0258 16.4181 10.2313 16.3807 10.298C15.6087 11.6748 14.8411 13.0557 14.0308 14.4152C13.8969 14.6399 13.5061 15.3988 13.7655 14.6597C14.1677 13.5135 14.5861 12.3622 14.7834 11.1703C14.7869 11.1495 14.916 10.6005 14.6697 10.8444C14.0878 11.4206 13.6635 12.196 13.2024 12.8455C12.6658 13.6011 12.1244 14.3547 11.6051 15.1198C11.4574 15.3373 11.1954 15.6607 11.1069 15.925C11.0807 16.0035 11.2635 15.8339 11.3235 15.7716C11.9366 15.135 12.4326 14.4143 12.9208 13.701C13.348 13.0769 13.7604 12.4448 14.1905 11.8222C14.2906 11.6773 14.4774 11.2219 14.4964 11.3908C14.5061 11.4763 14.2411 11.8976 14.2393 11.9012C13.8202 12.7398 13.467 13.6014 13.1374 14.4703C13.0652 14.6607 12.9934 14.8513 12.9262 15.0431C12.8851 15.1605 12.845 15.2783 12.8125 15.3978C12.7997 15.4448 12.7432 15.5179 12.7909 15.5416C12.8354 15.5637 12.8551 15.4707 12.8802 15.4313C13.0146 15.2207 13.1909 14.8655 13.289 14.6644C13.5513 14.127 13.7916 13.5815 13.9821 13.0204C14.0272 12.8874 14.0656 12.7525 14.1039 12.6178C14.1353 12.5075 14.2974 12.2496 14.1743 12.2823C14.0789 12.3076 13.7386 13.0871 13.7384 13.0875C13.4623 13.625 13.1989 14.1668 12.9506 14.7148C12.8844 14.8608 12.8095 15.1123 12.7042 15.2588C12.5056 15.5351 13.0114 14.6628 13.159 14.3625C13.6197 13.4256 14.7413 10.5234 14.3719 11.4914C13.961 12.568 13.7131 13.7097 13.4081 14.813C13.3496 15.0249 13.0905 15.6061 13.3756 15.0814C14.3451 13.2974 15.3833 11.5426 16.3699 9.76594C16.5312 9.47546 16.9397 8.5834 16.868 8.9008C16.737 9.48071 16.4557 10.0295 16.3157 10.6095C16.2882 10.7236 16.1468 11.0262 16.2508 10.9546C16.3318 10.8989 16.5257 10.4799 16.5404 10.4537C16.7617 10.062 16.9679 9.66641 17.1333 9.25308C17.2305 9.01044 17.3716 8.25274 17.3716 8.51016C17.3716 8.70012 17.2975 8.94767 17.2714 9.12607C17.2042 9.58599 17.1595 10.046 17.1279 10.5089C17.1112 10.7535 17.0846 11.0038 17.0846 11.2494C17.0846 11.3054 17.2293 10.7304 17.2362 10.703C17.3618 10.2062 17.5364 9.71054 17.6125 9.20515C17.6261 9.11526 17.5636 9.38286 17.5178 9.46398" stroke="black" stroke-width="4" stroke-linecap="round"/>
<path d="M17.759 8.75488C17.7173 9.55982 17.3271 10.327 17.0388 11.0777C16.6518 12.0853 16.2953 13.0957 15.8527 14.0846C15.6081 14.6311 15.3788 15.1976 15.0468 15.7062C14.8694 15.9779 14.8804 15.6864 14.8674 15.5314" stroke="black" stroke-width="3" stroke-linecap="round"/>
<path d="M15.4458 6.26953C15.1992 6.78586 14.9304 7.29627 14.6989 7.81722C14.6386 7.95285 14.5784 8.08637 14.5784 8.23138" stroke="black" stroke-width="3" stroke-linecap="round"/>
<path d="M17.1807 6.40063C16.5282 7.3188 15.569 8.01949 14.8692 8.90979C14.3109 9.62007 13.8362 10.3759 13.5204 11.2026C13.4175 11.4721 13.3745 11.7592 13.2771 12.0246" stroke="black" stroke-width="4" stroke-linecap="round"/>
<path d="M16.3132 10.3242C15.6427 11.2996 15.0551 12.324 14.3618 13.286C13.8398 14.0103 13.2621 14.6844 12.9066 15.4893C12.8207 15.6838 12.7014 15.9175 12.6641 16.1277C12.6256 16.3441 13.1501 16.0005 13.1547 15.9981C13.4216 15.8568 13.6841 15.7009 13.965 15.5805C14.0095 15.5614 14.1347 15.5437 14.1138 15.5829C14.0504 15.7015 13.7826 15.9516 13.7224 16.0101C13.159 16.5582 12.5948 17.115 12.0026 17.6398C11.6063 17.991 12.1012 17.6302 12.2506 17.6302C12.3697 17.6302 12.2032 17.8347 12.1569 17.9302C11.9871 18.2809 11.8138 18.63 11.6526 18.9839C11.5454 19.2191 11.4557 19.6953 11.2529 19.8719" stroke="black" stroke-width="3" stroke-linecap="round"/>
<path d="M25.5662 5.91949C25.8248 5.63255 26.1003 5.32453 26.4451 5.11521C26.8581 4.86453 27.2167 4.9554 27.6298 5.14428C28.3411 5.46955 29.0183 5.87554 29.6934 6.2538C31.0227 6.9986 32.3394 7.76266 33.6296 8.56004C35.2244 9.5457 37.3138 10.7275 37.9752 12.4603C38.1316 12.87 38.1445 13.2979 38.1445 13.7249" stroke="black" stroke-width="3" stroke-linecap="round"/>
<path d="M28.0242 3.78491C28.7912 4.35366 29.544 4.93041 30.3308 5.47781C31.4376 6.24787 32.5932 6.9851 33.629 7.83422C34.2357 8.33152 34.8562 8.87304 35.3051 9.49785C35.4018 9.63237 35.4992 9.77625 35.5422 9.93205" stroke="black" stroke-width="3" stroke-linecap="round"/>
<path d="M27.8794 3.26147C28.8602 4.50492 30.5992 5.24891 31.979 6.0994C33.0972 6.78861 34.2902 7.51968 35.1083 8.49308" stroke="black" stroke-width="3" stroke-linecap="round"/>
<path d="M28.1687 4.0459C29.9438 5.44484 31.954 6.55875 34.0493 7.55505C34.9822 7.99866 35.9333 8.4095 36.8434 8.88514" stroke="black" stroke-width="3" stroke-linecap="round"/>
<path d="M32.3615 3C33.063 4.747 33.8054 6.45643 34.8236 8.06768C35.2696 8.77336 35.7014 9.47604 36.1205 10.1935" stroke="black" stroke-width="3" stroke-linecap="round"/>
<path d="M32.6506 4.43848C34.2662 5.76506 36.2409 7.03181 37.0365 8.91929C37.2494 9.42444 37.3778 9.93206 37.5171 10.4532C37.5271 10.4904 37.5663 10.672 37.5663 10.5355" stroke="black" stroke-width="3" stroke-linecap="round"/>
<path d="M33.9518 4.0459C34.0623 4.42205 34.2971 4.75226 34.5365 5.07898C35.0395 5.76521 35.5481 6.44595 36.0265 7.14513C36.8283 8.31708 37.5303 9.5486 38 10.847" stroke="black" stroke-width="3" stroke-linecap="round"/>
<path d="M32.9398 4.177C34.7252 7.12978 37.5255 9.76012 38.4338 13.0993C38.7149 14.1326 38.8675 15.2745 38.8675 16.3405" stroke="black" stroke-width="3" stroke-linecap="round"/>
<path d="M30.1927 5.87769C30.5777 6.44077 30.9559 7.00636 31.405 7.53207C32.0346 8.26895 32.7871 8.91125 33.4887 9.59225C34.9211 10.9826 36.0994 12.494 37.2121 14.0944C37.9734 15.1892 38.764 16.3069 39.2254 17.5352C39.2537 17.6104 39.3012 17.8426 39.3012 17.7633" stroke="black" stroke-width="3" stroke-linecap="round"/>
<path d="M31.4939 7.18555C33.388 9.71976 35.5139 12.07 37.6972 14.4051C38.3717 15.1265 39.0882 15.8556 39.6179 16.6724C39.6643 16.7438 39.8794 17.3612 39.8794 17.0271" stroke="black" stroke-width="3" stroke-linecap="round"/>
<path d="M29.3254 6.13867C29.7044 6.82834 30.2334 7.37695 30.7956 7.95441C31.9336 9.12345 33.118 10.2564 34.2529 11.4274C35.3638 12.5736 36.284 13.8316 37.1609 15.1261C37.4354 15.5313 37.8011 15.9852 37.8556 16.4711" stroke="black" stroke-width="3" stroke-linecap="round"/>
<path d="M29.4697 4.8313C30.4073 6.16569 31.2001 7.57542 32.1249 8.91654C33.032 10.2319 34.1045 11.4411 35.3021 12.5495C36.6128 13.7627 38.0328 14.8792 39.5902 15.8177" stroke="black" stroke-width="3" stroke-linecap="round"/>
<path d="M35.6868 6.92358C36.528 8.46519 37.5328 9.93177 38.5522 11.3798C39.4662 12.678 40.3255 13.9544 40.8914 15.4154C41.3535 16.6087 41.6893 17.8363 42.0769 19.05C42.1493 19.2769 42.2165 19.5106 42.3028 19.7339C42.3166 19.7695 42.3315 19.6625 42.3374 19.6251" stroke="black" stroke-width="3" stroke-linecap="round"/>
<path d="M38 6.79297C38.3188 8.22621 38.9185 9.60548 39.5193 10.9612C39.9092 11.8408 40.2908 12.7227 40.6684 13.6065C40.9787 14.333 41.3249 15.0602 41.5315 15.8173C41.8288 16.9065 41.9561 18.2842 41.1367 19.218" stroke="black" stroke-width="3" stroke-linecap="round"/>
<path d="M38.2891 9.40869C38.3979 10.9555 38.8734 12.4368 39.2191 13.9478C39.648 15.8227 39.9312 17.739 39.9988 19.6552C40.0352 20.6859 40.0243 21.7218 40.0144 22.7531C40.009 23.3129 39.9123 23.7895 39.7346 24.3188" stroke="black" stroke-width="3" stroke-linecap="round"/>
<path d="M38.5784 14.6401C39.0712 17.9617 40.1291 21.2031 40.2821 24.5662C40.3357 25.7462 40.304 26.9307 40.304 28.1115" stroke="black" stroke-width="3" stroke-linecap="round"/>
<path d="M36.41 13.5942C36.4019 15.6709 36.5509 17.8177 37.4201 19.7781C37.6526 20.3025 37.8897 20.8587 38.2892 21.3109" stroke="black" stroke-width="3" stroke-linecap="round"/>
<path d="M33.5181 14.2478C33.9 15.9301 34.3909 17.5359 35.2777 19.0774C35.4073 19.3028 35.5741 19.5138 35.6867 19.741" stroke="black" stroke-width="3" stroke-linecap="round"/>
<path d="M31.4939 11.5015C31.728 13.0354 32.3237 14.553 33.1539 15.9134C34.0615 17.4008 35.3446 18.8528 36.8828 19.8693C37.7146 20.419 38.9169 21.1799 40.024 21.1799" stroke="black" stroke-width="3" stroke-linecap="round"/>
<path d="M36.5542 18.8257C36.5542 20.4165 36.898 21.9839 36.9505 23.5748C36.9835 24.5777 37.0843 25.5751 37.0843 26.5789C37.0843 27.3712 37.0843 28.1636 37.0843 28.9559C37.0843 29.5676 37.0361 30.1734 37.0361 30.7836C37.0361 30.9397 36.9491 31.2983 37.1325 31.3815" stroke="black" stroke-width="3" stroke-linecap="round"/>
<path d="M37.4217 20.2644C37.2502 20.7295 37.1972 21.1892 37.1869 21.6632C37.1585 22.973 37.1825 24.2835 37.1825 25.5934C37.1825 26.7124 36.9967 27.9167 37.342 29.0273" stroke="black" stroke-width="3" stroke-linecap="round"/>
<path d="M36.988 28.8965C36.8393 29.5109 36.7063 30.1315 36.699 30.7545C36.6975 30.8804 36.7096 31.0013 36.7712 31.1199" stroke="black" stroke-width="3" stroke-linecap="round"/>
<path d="M20.6506 7.7085C24.744 8.92512 28.8456 9.84573 33.0844 10.5859" stroke="black" stroke-width="3" stroke-linecap="round"/>
<path d="M21.5181 6.92358C23.6973 10.2138 28.7734 11.9401 32.763 12.7281C34.0719 12.9866 35.342 12.9359 36.6988 12.9359" stroke="black" stroke-width="3" stroke-linecap="round"/>
<path d="M25.5662 7.96997C26.7918 9.43334 28.5661 10.4318 30.2069 11.4874C31.7534 12.4822 33.3084 13.4101 34.9638 14.2479" stroke="black" stroke-width="3" stroke-linecap="round"/>
<path d="M24.1206 7.31592C25.4092 8.67479 26.9619 9.62521 28.6421 10.5867C31.6215 12.2918 34.7745 14.0665 38.2003 14.9943C38.6322 15.1112 40.3409 15.6519 40.8018 15.317C41.3224 14.9387 41.3254 14.061 41.3254 13.5202" stroke="black" stroke-width="3" stroke-linecap="round"/>
<path d="M22.0963 6.00806C25.9468 8.9017 29.6864 12.0876 34.3938 13.9281C36.1259 14.6054 37.5964 15.0326 39.4457 15.0326" stroke="black" stroke-width="3" stroke-linecap="round"/>
<path d="M34.6746 10.1934C36.416 12.6309 38.2077 15.0833 40.1336 17.4074C40.8528 18.2754 41.4984 19.1214 42.3372 19.8718" stroke="black" stroke-width="3" stroke-linecap="round"/>
<path d="M24.4724 24.7114C24.367 25.2441 23.6522 26.7959 24.6252 26.7959C25.1074 26.7959 25.5494 26.9349 26.0001 26.9349" stroke="black" stroke-width="5" stroke-linecap="round"/>
<path d="M16.6025 17.781C17.9617 17.6297 19.3187 17.6511 20.6861 17.6511C21.2598 17.6511 22.1883 17.5911 22.5302 18.0408" stroke="black" stroke-width="5" stroke-linecap="round"/>
<path d="M27.1566 17.7794C28.8873 17.7525 30.6427 17.5178 32.3614 17.5178" stroke="black" stroke-width="5" stroke-linecap="round"/>
<path d="M19.2026 20.395C18.4034 20.4115 17.846 20.5596 17.7685 21.3311C17.681 22.2017 18.2059 22.3146 19.1945 22.1771C19.9326 22.0744 20.1038 21.8289 20.0678 21.2687C20.0434 20.888 19.4837 20.8816 19.3468 20.6446" stroke="black" stroke-width="5" stroke-linecap="round"/>
<path d="M31.0035 19.8721C30.1544 19.8897 29.5621 20.0484 29.4797 20.875C29.3868 21.8078 29.9445 21.9287 30.995 21.7814C31.7791 21.6714 31.961 21.4083 31.9228 20.8082C31.8968 20.4003 31.3021 20.3934 31.1567 20.1395" stroke="black" stroke-width="5" stroke-linecap="round"/>
<path d="M15.5905 8.62378C13.9228 10.756 11.9751 12.6319 10.4893 14.7923C9.83103 15.7495 9.09887 16.6852 8.53888 17.696C8.07472 18.5338 7.91454 19.2619 7.63867 20.1333" stroke="black" stroke-width="5" stroke-linecap="round"/>
<path d="M15.4458 5.74658C14.7113 8.04125 14.0732 10.3699 13.8881 12.7441C13.7972 13.9105 13.2771 15.0315 13.2771 16.2098" stroke="black" stroke-width="5" stroke-linecap="round"/>
<path d="M21.9518 5.93119C23.2003 5.51421 24.9302 4.43427 26.343 4.58335C27.4203 4.69703 28.0643 5.52486 29.0145 5.85631C29.6113 6.06449 30.1872 6.309 30.7843 6.50027C31.3976 6.69671 31.7161 7.36806 32.3288 7.60849C33.7403 8.16238 34.8596 9.12482 35.9269 10.1095C37.3123 11.3875 38.8674 12.9399 41.0361 12.9399" stroke="black" stroke-width="5" stroke-linecap="round"/>
<path d="M22.241 8.08303C23.4289 7.6255 24.5675 7.10495 25.7622 7.7468C26.5171 8.1524 27.2231 8.6221 27.94 9.07678C29.1519 9.8455 30.5072 10.403 31.7031 11.2062C32.2385 11.5658 32.868 11.7423 33.422 12.058C33.7879 12.2665 34.3594 12.7153 34.7737 12.7828C35.807 12.951 36.8215 13.1186 37.7108 12.5213" stroke="black" stroke-width="5" stroke-linecap="round"/>
<path d="M21.8073 8.53593C22.7793 8.35386 24.2508 7.83912 25.2472 8.26512C25.7791 8.49249 26.1904 8.90463 26.6681 9.20545C27.6446 9.82048 28.6925 10.4036 29.8172 10.7702C30.6161 11.0306 34.2684 12.2415 34.8193 11.2441" stroke="black" stroke-width="5" stroke-linecap="round"/>
<path d="M24.265 8.49341C23.7225 11.2694 22.2889 13.656 19.2131 14.7338C18.1121 15.1197 16.7732 15.1637 15.5903 15.1637" stroke="black" stroke-width="5" stroke-linecap="round"/>
<path d="M21.9519 8.3623C21.5369 10.1039 21.1296 11.5329 19.7695 12.8434C19.2141 13.3786 18.5543 13.8126 17.9037 14.2479" stroke="black" stroke-width="5" stroke-linecap="round"/>
<path d="M21.8072 7.83936C21.1271 9.62222 20.3715 10.9709 19.0602 12.417" stroke="black" stroke-width="5" stroke-linecap="round"/>
<path d="M22.0963 7.96997C20.975 9.5653 19.8462 11.1429 18.6265 12.6784" stroke="black" stroke-width="5" stroke-linecap="round"/>
<path d="M22.6747 8.49341C21.8086 9.32294 20.9412 10.1513 20.0723 10.9784" stroke="black" stroke-width="5" stroke-linecap="round"/>
<path d="M22.3856 8.3623C21.5195 9.19183 20.6521 10.0202 19.7832 10.8473" stroke="black" stroke-width="5" stroke-linecap="round"/>
</svg>
