<svg width="20" height="20" viewBox="0 0 20 20" fill="none" xmlns="http://www.w3.org/2000/svg">
<path d="M16.6667 8.43493C17.3028 9.15619 17.588 9.67935 17.4763 10.2325C17.3023 11.0939 16.2693 11.5147 14.2033 12.3565L12.2657 13.1458C11.6959 13.378 11.411 13.4941 11.1935 13.6942C11.1195 13.7623 11.0518 13.8371 10.9915 13.9176C10.8144 14.1541 10.7275 14.4492 10.5539 15.0395C10.1435 16.4349 9.93832 17.1326 9.45835 17.3715C9.30213 17.4493 9.13114 17.4929 8.95676 17.4994C8.42098 17.5195 7.90675 17.0053 6.87828 15.9768L4.02319 13.1217C2.99472 12.0933 2.48049 11.579 2.50057 11.0432C2.5071 10.8689 2.5507 10.6979 2.62847 10.5416C2.8674 10.0617 3.56509 9.85648 4.96046 9.44607C5.55076 9.27245 5.84591 9.18564 6.08242 9.00847C6.16293 8.94815 6.23773 8.88055 6.30584 8.80651C6.50592 8.58904 6.622 8.30412 6.85415 7.73429L7.64355 5.79669C8.48526 3.73067 8.90611 2.69766 9.76753 2.5237C10.6289 2.34975 11.4177 3.13849 12.9952 4.71598L14.1396 5.8604" stroke="white" stroke-width="2" stroke-linecap="round"/>
<path d="M2.49997 17.4447L5.46581 14.4767" stroke="white" stroke-width="2" stroke-linecap="round"/>
</svg>
