<svg width="38" height="38" viewBox="0 0 38 38" fill="none" xmlns="http://www.w3.org/2000/svg">
<path d="M33.1075 17.6067V10.6558C33.1075 9.35749 32.1258 7.88499 30.9067 7.39415L22.0875 3.78415C20.1083 2.97665 17.8758 2.97665 15.8967 3.78415L7.07752 7.39415C5.87418 7.88499 4.89252 9.35749 4.89252 10.6558V17.6067C4.89252 25.3492 10.5133 32.6008 18.1925 34.7225C18.715 34.865 19.285 34.865 19.8075 34.7225C27.4867 32.6008 33.1075 25.3492 33.1075 17.6067ZM20.1875 20.3775V24.5417C20.1875 25.1908 19.6492 25.7292 19 25.7292C18.3508 25.7292 17.8125 25.1908 17.8125 24.5417V20.3775C16.2133 19.8708 15.0417 18.3825 15.0417 16.625C15.0417 14.44 16.815 12.6667 19 12.6667C21.185 12.6667 22.9583 14.44 22.9583 16.625C22.9583 18.3983 21.7867 19.8708 20.1875 20.3775Z" fill="#292D32"/>
</svg>
