<svg width="20" height="20" viewBox="0 0 20 20" fill="none" xmlns="http://www.w3.org/2000/svg">
<path d="M18.3333 11.1975C18.3333 14.3402 18.3333 15.9116 17.357 16.8879C16.3807 17.8642 14.8093 17.8642 11.6666 17.8642H8.33329C5.1906 17.8642 3.61925 17.8642 2.64294 16.8879C1.66663 15.9116 1.66663 14.3402 1.66663 11.1975C1.66663 8.05482 1.66663 6.48347 2.64294 5.50716C3.61925 4.53085 5.1906 4.53085 8.33329 4.53085H11.6666C14.8093 4.53085 16.3807 4.53085 17.357 5.50716C17.91 6.06019 18.1498 6.80415 18.2537 7.91647" stroke="#292D32" stroke-width="2" stroke-linecap="round"/>
<path d="M3.32312 4.99982C3.41681 4.22397 3.61241 3.6878 4.02078 3.28087C4.80457 2.49982 6.06606 2.49982 8.58903 2.49982H11.2651C13.788 2.49982 15.0495 2.49982 15.8333 3.28087C16.2417 3.6878 16.4373 4.22397 16.531 4.99982" stroke="#292D32" stroke-width="2"/>
<circle cx="14.5834" cy="8.28085" r="1.25" stroke="#292D32" stroke-width="2"/>
<path d="M1.66663 11.6141L3.12628 10.3369C3.88567 9.67247 5.03019 9.71058 5.7437 10.4241L9.31847 13.9989C9.89116 14.5716 10.7927 14.6496 11.4553 14.1839L11.7038 14.0093C12.6573 13.3392 13.9474 13.4168 14.8137 14.1965L17.5 16.6141" stroke="#292D32" stroke-width="2" stroke-linecap="round"/>
</svg>
